<svg xmlns="http://www.w3.org/2000/svg" xmlns:xlink="http://www.w3.org/1999/xlink" width="479.843" height="545.606" viewBox="0 0 479.843 545.606">
  <defs>
    <linearGradient id="linear-gradient" x1="10.667" y1="0.5" x2="11.667" y2="0.5" gradientUnits="objectBoundingBox">
      <stop offset="0" stop-color="#ffe6f1"/>
      <stop offset="1" stop-color="#faf5ed"/>
    </linearGradient>
    <linearGradient id="linear-gradient-2" x1="0.742" y1="0.191" x2="0.218" y2="0.857" gradientUnits="objectBoundingBox">
      <stop offset="0" stop-color="#ffcfe4"/>
      <stop offset="1" stop-color="#faf5ed"/>
    </linearGradient>
    <linearGradient id="linear-gradient-3" x1="0.263" y1="1.007" x2="0.655" y2="0.349" gradientUnits="objectBoundingBox">
      <stop offset="0" stop-color="#ffd9ea"/>
      <stop offset="1" stop-color="#faf5ed"/>
    </linearGradient>
    <linearGradient id="linear-gradient-4" x1="0.947" y1="0.059" x2="0.396" y2="0.61" xlink:href="#linear-gradient-3"/>
    <linearGradient id="linear-gradient-5" x1="-0.001" y1="0.5" x2="1" y2="0.5" xlink:href="#linear-gradient"/>
    <linearGradient id="linear-gradient-6" x1="0" y1="0.5" x2="1" y2="0.5" xlink:href="#linear-gradient"/>
    <linearGradient id="linear-gradient-7" x1="0" y1="0.5" x2="1" y2="0.5" xlink:href="#linear-gradient"/>
    <linearGradient id="linear-gradient-8" x1="0" y1="0.5" x2="1" y2="0.5" xlink:href="#linear-gradient"/>
    <linearGradient id="linear-gradient-9" x1="0" y1="0.5" x2="1" y2="0.5" xlink:href="#linear-gradient"/>
    <linearGradient id="linear-gradient-10" x1="-0.001" y1="0.5" x2="0.999" y2="0.5" gradientUnits="objectBoundingBox">
      <stop offset="0.18" stop-color="#c7e7ff"/>
      <stop offset="1" stop-color="#95bee8"/>
    </linearGradient>
    <linearGradient id="linear-gradient-11" x1="-0.002" y1="0.5" x2="1.001" y2="0.5" xlink:href="#linear-gradient-10"/>
    <linearGradient id="linear-gradient-12" x1="1.001" y1="0.238" x2="-0.013" y2="0.796" xlink:href="#linear-gradient-10"/>
    <linearGradient id="linear-gradient-13" x1="0.806" y1="0.328" x2="-0.425" y2="0.965" xlink:href="#linear-gradient-10"/>
    <linearGradient id="linear-gradient-14" x1="0.001" y1="0.5" x2="1.001" y2="0.5" xlink:href="#linear-gradient-10"/>
    <linearGradient id="linear-gradient-15" x1="0.069" y1="0.301" x2="0.679" y2="0.632" xlink:href="#linear-gradient-10"/>
    <linearGradient id="linear-gradient-16" x1="-0.002" y1="0.5" x2="0.998" y2="0.5" xlink:href="#linear-gradient-10"/>
    <linearGradient id="linear-gradient-17" x1="-0.003" y1="0.5" x2="1" y2="0.5" xlink:href="#linear-gradient-10"/>
    <linearGradient id="linear-gradient-18" x1="1.033" y1="0.229" x2="0.082" y2="0.711" xlink:href="#linear-gradient-10"/>
    <linearGradient id="linear-gradient-19" x1="0.841" y1="0.275" x2="0.341" y2="0.846" xlink:href="#linear-gradient-10"/>
    <linearGradient id="linear-gradient-20" x1="0" y1="0.5" x2="1" y2="0.5" xlink:href="#linear-gradient-10"/>
    <linearGradient id="linear-gradient-21" x1="0.07" y1="0.301" x2="0.68" y2="0.632" xlink:href="#linear-gradient-10"/>
    <linearGradient id="linear-gradient-22" x1="0.501" y1="0.308" x2="0.501" y2="0.912" xlink:href="#linear-gradient-10"/>
    <linearGradient id="linear-gradient-23" x1="1.216" y1="0.135" x2="0.463" y2="0.586" xlink:href="#linear-gradient-10"/>
    <linearGradient id="linear-gradient-24" x1="1.036" y1="0.051" x2="0.138" y2="0.79" gradientUnits="objectBoundingBox">
      <stop offset="0.05" stop-color="#c7e7ff"/>
      <stop offset="0.18" stop-color="#c7e7ff"/>
      <stop offset="1" stop-color="#95bee8"/>
    </linearGradient>
    <linearGradient id="linear-gradient-25" x1="-0.001" y1="0.5" x2="0.999" y2="0.5" xlink:href="#linear-gradient-10"/>
    <linearGradient id="linear-gradient-26" x1="0.284" y1="0.416" x2="0.844" y2="0.776" xlink:href="#linear-gradient-10"/>
    <linearGradient id="linear-gradient-27" x1="-0.124" y1="0.1" x2="0.764" y2="0.8" xlink:href="#linear-gradient-10"/>
    <linearGradient id="linear-gradient-28" x1="0.5" y1="0.308" x2="0.5" y2="0.912" xlink:href="#linear-gradient-10"/>
    <linearGradient id="linear-gradient-29" x1="1.214" y1="0.135" x2="0.464" y2="0.586" xlink:href="#linear-gradient-10"/>
    <linearGradient id="linear-gradient-30" x1="1.037" y1="0.051" x2="0.138" y2="0.79" xlink:href="#linear-gradient-24"/>
    <linearGradient id="linear-gradient-31" x1="-0.001" y1="0.5" x2="0.999" y2="0.5" xlink:href="#linear-gradient-10"/>
    <linearGradient id="linear-gradient-32" x1="0.284" y1="0.417" x2="0.844" y2="0.776" xlink:href="#linear-gradient-10"/>
    <linearGradient id="linear-gradient-33" x1="-0.124" y1="0.099" x2="0.764" y2="0.799" xlink:href="#linear-gradient-10"/>
    <linearGradient id="linear-gradient-34" x1="-28.14" y1="33.887" x2="9.621" y2="-10.135" xlink:href="#linear-gradient-3"/>
    <linearGradient id="linear-gradient-35" x1="6.367" y1="0.5" x2="7.367" y2="0.5" gradientUnits="objectBoundingBox">
      <stop offset="0" stop-color="#ed82b4"/>
      <stop offset="1" stop-color="#ffebcf"/>
    </linearGradient>
    <linearGradient id="linear-gradient-36" x1="46.335" y1="1.113" x2="47.335" y2="1.113" xlink:href="#linear-gradient-10"/>
    <linearGradient id="linear-gradient-37" x1="38.293" y1="0.501" x2="39.294" y2="0.501" gradientUnits="objectBoundingBox">
      <stop offset="0.04" stop-color="#5a5efa"/>
      <stop offset="1" stop-color="#212b78"/>
    </linearGradient>
    <linearGradient id="linear-gradient-38" x1="22.15" y1="1.088" x2="21.932" y2="0.614" gradientUnits="objectBoundingBox">
      <stop offset="0" stop-color="#d64f8e"/>
      <stop offset="1" stop-color="#9e44c7"/>
    </linearGradient>
    <linearGradient id="linear-gradient-39" x1="34.371" y1="0.499" x2="35.371" y2="0.499" xlink:href="#linear-gradient-37"/>
    <linearGradient id="linear-gradient-40" x1="0.835" y1="1.052" x2="0.177" y2="-0.388" gradientUnits="objectBoundingBox">
      <stop offset="0.18" stop-color="#fff"/>
      <stop offset="1" stop-color="#95bee8"/>
    </linearGradient>
    <linearGradient id="linear-gradient-41" x1="0.905" y1="0.826" x2="0.222" y2="0.137" xlink:href="#linear-gradient-40"/>
    <linearGradient id="linear-gradient-42" x1="17.334" y1="0.698" x2="17.816" y2="0.219" xlink:href="#linear-gradient-10"/>
    <linearGradient id="linear-gradient-43" x1="21.091" y1="0.501" x2="22.088" y2="0.501" gradientUnits="objectBoundingBox">
      <stop offset="0.04" stop-color="#5a5efa"/>
      <stop offset="1" stop-color="#222c7c"/>
    </linearGradient>
    <linearGradient id="linear-gradient-44" x1="17.219" y1="0.743" x2="17.021" y2="0.056" xlink:href="#linear-gradient-10"/>
    <linearGradient id="linear-gradient-45" x1="26.188" y1="-0.035" x2="27.277" y2="0.779" xlink:href="#linear-gradient-37"/>
    <linearGradient id="linear-gradient-46" x1="39.303" y1="0.5" x2="40.303" y2="0.5" gradientUnits="objectBoundingBox">
      <stop offset="0.03" stop-color="#212b78"/>
      <stop offset="1" stop-color="#585cf6"/>
    </linearGradient>
    <linearGradient id="linear-gradient-47" x1="0" y1="0.5" x2="1" y2="0.5" xlink:href="#linear-gradient-40"/>
    <linearGradient id="linear-gradient-48" x1="0" y1="0.5" x2="1.002" y2="0.5" xlink:href="#linear-gradient-40"/>
    <linearGradient id="linear-gradient-49" x1="22.062" y1="0.826" x2="23.062" y2="0.826" xlink:href="#linear-gradient-10"/>
    <linearGradient id="linear-gradient-50" x1="18.148" y1="0.5" x2="19.148" y2="0.5" xlink:href="#linear-gradient-37"/>
    <linearGradient id="linear-gradient-51" x1="21.858" y1="-0.123" x2="22.775" y2="0.774" xlink:href="#linear-gradient-43"/>
    <linearGradient id="linear-gradient-52" x1="113.631" y1="-0.855" x2="112.672" y2="0.964" gradientUnits="objectBoundingBox">
      <stop offset="0.04" stop-color="#5a5efa"/>
      <stop offset="1" stop-color="#2b379c"/>
    </linearGradient>
    <linearGradient id="linear-gradient-53" x1="29.424" y1="0.027" x2="29.344" y2="0.551" xlink:href="#linear-gradient-52"/>
    <linearGradient id="linear-gradient-54" x1="21.195" y1="0.5" x2="22.195" y2="0.5" gradientUnits="objectBoundingBox">
      <stop offset="0" stop-color="#ff63ac"/>
      <stop offset="1" stop-color="#b54ce6"/>
    </linearGradient>
    <linearGradient id="linear-gradient-55" x1="34.949" y1="0.5" x2="35.949" y2="0.5" xlink:href="#linear-gradient-10"/>
    <linearGradient id="linear-gradient-56" x1="-0.078" y1="0.146" x2="0.576" y2="0.551" gradientUnits="objectBoundingBox">
      <stop offset="0" stop-color="#ffb3d6"/>
      <stop offset="1" stop-color="#e1a1ff"/>
    </linearGradient>
    <linearGradient id="linear-gradient-57" x1="-0.078" y1="0.146" x2="0.576" y2="0.552" xlink:href="#linear-gradient-56"/>
  </defs>
  <g id="Grupo_197" data-name="Grupo 197" transform="translate(-737 -3853)">
    <g id="Isometrico_login" data-name="Isometrico  login" transform="translate(737 3853)">
      <path id="Trazado_326" data-name="Trazado 326" d="M88.1,346.681c49.958,23.341,156.448-69.026,189.218-113.4,32.318-43.679,47.186-190.4,0-217.347-47.7-27.195-161.981,64-189.218,111.7S38.478,323.508,88.1,346.681Z" transform="translate(-44.379 -10.971)" fill="url(#linear-gradient)"/>
      <path id="Trazado_327" data-name="Trazado 327" d="M100.706,327.26c44.1,20.6,138.1-60.9,167.063-100.095,28.539-38.566,41.663-168.113,0-191.906-42.115-24.045-143.018,56.479-167.063,98.646S56.9,306.8,100.706,327.26Z" transform="translate(-43.577 -9.977)" fill="url(#linear-gradient-2)"/>
      <path id="Trazado_328" data-name="Trazado 328" d="M288.532,85.807c-7.57-7.9-17.43-16.579-28.99-16.936-12.673-.378-21.546,10.374-28.465,19.6-8.347,11.119-32.382,53.371-39,61.382-2.719,3.3-6.006,6.7-10.059,8.326-4.882,1.953-9.523-.3-13.723-2.74-5.628-3.286-11.707-5.439-18.2-3.276-5.617,1.879-9.8,6.5-13.356,11.025C127.433,175.055,83.2,272.389,77.37,286.2c3.58,18.826,10.867,33.358,23.2,39.122,44.1,20.6,138.1-60.9,167.063-100.095,18.27-24.685,30.219-86.655,25.525-134.3C291.661,89.23,290.128,87.518,288.532,85.807Z" transform="translate(-43.445 -8.078)" fill="url(#linear-gradient-3)"/>
      <path id="Trazado_329" data-name="Trazado 329" d="M111.386,226.765c4.357,3.769,10.626.609,14.542-2.257,4.273-3.15,7.528-7.35,10.71-11.55,9.1-11.928,21.231-31.006,38.933-23.824,5.313,2.1,10.174,4.578,16.044,4.672a22.774,22.774,0,0,0,13.345-4.2c8.4-5.806,13.881-15.4,19.1-23.961,6.709-10.993,13.513-21.934,21.252-32.245,7.182-9.565,15.12-19.11,24.654-26.428a82.948,82.948,0,0,1,21.976-12.316c-.094-1.239-.2-2.478-.326-3.7-1.5-1.732-3.034-3.444-4.63-5.113-7.57-7.9-17.43-16.579-28.99-16.936-12.673-.378-21.546,10.374-28.465,19.6-8.347,11.119-32.382,53.371-39,61.382-2.719,3.3-6.006,6.7-10.059,8.326-4.882,1.953-9.523-.3-13.723-2.74-5.628-3.286-11.707-5.439-18.2-3.276-5.617,1.879-9.8,6.5-13.356,11.025-4.074,5.2-14.836,26.743-26.134,50.5C107.984,218.365,107.616,223.521,111.386,226.765Z" transform="translate(-41.898 -8.076)" fill="url(#linear-gradient-4)"/>
      <path id="Trazado_330" data-name="Trazado 330" d="M403.264,276.425l-58.379-33.8a4.084,4.084,0,0,0-4.084,0l-54.494,30.607a4.095,4.095,0,0,0,0,7.066l58.463,34.481a4.063,4.063,0,0,0,4.126,0L403.338,283.5a4.095,4.095,0,0,0-.073-7.077Z" transform="translate(-4.328 23.659)" fill="url(#linear-gradient-5)"/>
      <path id="Trazado_331" data-name="Trazado 331" d="M343.339,312.885l-58.411-33.8a4.105,4.105,0,0,0-4.095,0L122.926,370.13a4.084,4.084,0,0,0,0,7.056l58.463,34.492a4.084,4.084,0,0,0,4.126,0L343.35,319.972a4.084,4.084,0,0,0-.01-7.087Z" transform="translate(-27.828 33.476)" fill="url(#linear-gradient-6)"/>
      <path id="Trazado_332" data-name="Trazado 332" d="M170.926,411.205l-58.421-33.8a4.063,4.063,0,0,0-4.084,0L53.926,408a4.095,4.095,0,0,0,0,7.066l58.463,34.482a4.084,4.084,0,0,0,4.126,0l54.442-31.29a4.084,4.084,0,0,0-.031-7.056Z" transform="translate(-44.718 48.338)" fill="url(#linear-gradient-7)"/>
      <path id="Trazado_333" data-name="Trazado 333" d="M242.166,456.135l-58.421-33.8a4.084,4.084,0,0,0-4.084,0l-54.484,30.607a4.084,4.084,0,0,0,0,7.066l58.421,34.45a4.084,4.084,0,0,0,4.137,0l54.442-31.279a4.095,4.095,0,0,0-.011-7.045Z" transform="translate(-31.766 50.584)" fill="url(#linear-gradient-8)"/>
      <path id="Trazado_334" data-name="Trazado 334" d="M470.666,317.185l-58.421-33.81a4.105,4.105,0,0,0-4.084,0l-54.494,30.607a4.084,4.084,0,0,0,0,7.056l58.463,34.492a4.084,4.084,0,0,0,4.126,0l54.41-31.279a4.084,4.084,0,0,0,0-7.066Z" transform="translate(7.142 29.765)" fill="url(#linear-gradient-9)"/>
      <ellipse id="Elipse_37" data-name="Elipse 37" cx="17.262" cy="9.67" rx="17.262" ry="9.67" transform="translate(326.229 293.601)" fill="#fff"/>
      <path id="Trazado_335" data-name="Trazado 335" d="M335.483,237.562c1.05,3.465,2.1,6.562,2.971,9.376a98.7,98.7,0,0,1,3.759,14.112,41.264,41.264,0,0,1,.578,10.2,37.889,37.889,0,0,1-.882,5.47h3.864a25.6,25.6,0,0,0,1.942-4.473,36.088,36.088,0,0,0,1.344-15.12,80.608,80.608,0,0,0-3.349-14.91c-1.512-4.882-3.15-9.723-4.452-14.647-2.709-9.828-4.63-19.95-4.452-30.187s2.509-20.454,7.833-29.19a47.786,47.786,0,0,0-9.156,14.5,61.6,61.6,0,0,0-4.105,15.645,86.771,86.771,0,0,0,1.281,27.909C333.478,230.307,334.444,234.076,335.483,237.562Z" transform="translate(-4.71 13.985)" fill="url(#linear-gradient-10)"/>
      <path id="Trazado_336" data-name="Trazado 336" d="M345.422,242.214a80.6,80.6,0,0,1,3.349,14.91,36.087,36.087,0,0,1-1.344,15.12,25.6,25.6,0,0,1-1.942,4.473h5.008c.451-.609.9-1.27,1.344-1.995a32.275,32.275,0,0,0,4.252-13.881,45.45,45.45,0,0,0-.168-8.851,67.528,67.528,0,0,0-1.806-9.513c-.829-3.223-1.858-6.478-2.94-9.765s-2.173-6.646-3.36-10.258a146.868,146.868,0,0,1-5.89-24.013,75.188,75.188,0,0,1-.683-14.3,55.523,55.523,0,0,1,3.15-15.96c-5.323,8.736-7.654,19.026-7.833,29.19s1.743,20.359,4.452,30.187C342.272,232.491,343.91,237.29,345.422,242.214Z" transform="translate(-3.826 13.983)" fill="url(#linear-gradient-11)"/>
      <path id="Trazado_337" data-name="Trazado 337" d="M346.329,285.529a11.773,11.773,0,0,1-.4-1.491,18.468,18.468,0,0,1-.388-4.8,32.044,32.044,0,0,1,1.48-8.169,64.835,64.835,0,0,1,4.546-10.668c1.974-3.843,4.389-7.906,6.457-12.19a69.476,69.476,0,0,0,5.25-15.235,154.632,154.632,0,0,0,3.013-21.735c.735-8.4,1.165-18.07,2.94-28.423.493,9.082,1.732,18.091,2.4,27.163s.767,18.238-1.05,27.174a55.293,55.293,0,0,1-4.2,12.936,83.722,83.722,0,0,1-7.087,11.665c-2.6,3.727-5.3,7.35-7.644,11.3A43.334,43.334,0,0,0,346.329,285.529Z" transform="translate(-2.103 16.036)" fill="url(#linear-gradient-12)"/>
      <path id="Trazado_338" data-name="Trazado 338" d="M346.29,285.53s.4-.357,1.05-1.05,1.711-1.806,3.045-3.2,3.045-3.055,5.113-5.082,4.6-4.41,7.518-7.528a67.663,67.663,0,0,0,9.555-12.6,51.145,51.145,0,0,0,6.3-20.6,79.948,79.948,0,0,0-1.89-24.948c-1.89-8.725-4.945-17.64-7.885-27.709.493,9.082,1.732,18.091,2.4,27.163s.767,18.238-1.05,27.174a55.291,55.291,0,0,1-4.2,12.936,83.716,83.716,0,0,1-6.993,11.676c-2.6,3.727-5.3,7.35-7.644,11.3A43.332,43.332,0,0,0,346.29,285.53Z" transform="translate(-1.563 16.035)" fill="url(#linear-gradient-13)"/>
      <path id="Trazado_339" data-name="Trazado 339" d="M346.4,285.526s-.231-.389-.577-1.113-.892-1.754-1.638-2.992a68.019,68.019,0,0,0-7.35-9.67c-1.785-2.1-3.958-4.483-6.552-7.738a64.246,64.246,0,0,1-4.063-5.649,65.223,65.223,0,0,1-3.906-6.993,71.709,71.709,0,0,1-5.754-17.745,76.469,76.469,0,0,1-.819-22.176A115.172,115.172,0,0,0,330.357,249.3q2.667,4.357,5.659,8.484c1.995,2.751,4.021,5.491,5.785,8.4a35.02,35.02,0,0,1,4.147,9.271,21,21,0,0,1,.451,10.069Z" transform="translate(-6.122 19.107)" fill="url(#linear-gradient-14)"/>
      <path id="Trazado_340" data-name="Trazado 340" d="M346.378,285.526a7.715,7.715,0,0,0,.945-.85,11.55,11.55,0,0,0,2.152-3.255,17.85,17.85,0,0,0,1.47-6.657,26.681,26.681,0,0,0-1.606-9.723,49.236,49.236,0,0,0-5.554-10.71c-1.165-1.774-2.394-3.486-3.622-5.25s-2.615-3.665-4.032-5.67c-5.649-8.053-12.768-17.85-20.37-31.951a115.174,115.174,0,0,0,14.616,37.852q2.667,4.357,5.659,8.484c1.995,2.751,4.021,5.491,5.785,8.4a35.018,35.018,0,0,1,4.147,9.271A21,21,0,0,1,346.378,285.526Z" transform="translate(-5.825 19.108)" fill="url(#linear-gradient-15)"/>
      <ellipse id="Elipse_38" data-name="Elipse 38" cx="17.262" cy="9.67" rx="17.262" ry="9.67" transform="translate(50.031 451.238)" fill="#fff"/>
      <path id="Trazado_341" data-name="Trazado 341" d="M107.038,418.235l-.115-.409a9.8,9.8,0,0,1-.231-1.281,19.194,19.194,0,0,1,.315-5.344,73.5,73.5,0,0,0,1.354-7.906,41.222,41.222,0,0,0-.567-10.2,100.8,100.8,0,0,0-3.759-14.112c-.913-2.814-1.953-5.9-2.982-9.376s-2.005-7.245-2.814-11.308a86.487,86.487,0,0,1-1.291-27.867,61.948,61.948,0,0,1,4.105-15.655,47.942,47.942,0,0,1,9.166-14.5c-5.323,8.736-7.654,19.026-7.833,29.2s1.732,20.359,4.441,30.176c1.344,4.924,2.95,9.775,4.452,14.647a79.8,79.8,0,0,1,3.349,14.91,35.962,35.962,0,0,1-1.333,15.13C111.731,409.184,108.172,413.164,107.038,418.235Z" transform="translate(-42.496 35.719)" fill="url(#linear-gradient-16)"/>
      <path id="Trazado_342" data-name="Trazado 342" d="M106.75,418.237l1.134-1.207c.745-.8,1.89-1.858,3.507-3.307.808-.735,1.732-1.585,2.772-2.677a23.892,23.892,0,0,0,3.244-4.273,32.224,32.224,0,0,0,4.263-13.87,45.55,45.55,0,0,0-.147-8.914,68.106,68.106,0,0,0-1.806-9.513c-.829-3.223-1.869-6.478-2.95-9.754s-2.173-6.646-3.36-10.269a147.566,147.566,0,0,1-5.9-23.94,75.346,75.346,0,0,1-.683-14.311,55.24,55.24,0,0,1,3.15-15.96c-5.323,8.736-7.654,19.026-7.833,29.2s1.732,20.359,4.441,30.177c1.344,4.924,2.95,9.775,4.452,14.647a79.8,79.8,0,0,1,3.349,14.91,35.962,35.962,0,0,1-1.333,15.13C111.443,409.186,107.884,413.166,106.75,418.237Z" transform="translate(-42.208 35.716)" fill="url(#linear-gradient-17)"/>
      <path id="Trazado_343" data-name="Trazado 343" d="M109.039,418.379a11.845,11.845,0,0,1-.41-1.491,19.309,19.309,0,0,1-.388-4.788,32.435,32.435,0,0,1,1.48-8.169,64.985,64.985,0,0,1,4.567-10.668c1.984-3.843,4.389-7.906,6.468-12.19a70.137,70.137,0,0,0,5.25-15.246,156.036,156.036,0,0,0,2.982-21.724c.735-8.4,1.155-18.07,2.94-28.423.483,9.072,1.722,18.091,2.4,27.163s.756,18.238-1.05,27.174a54.832,54.832,0,0,1-4.2,12.936,83.252,83.252,0,0,1-7.077,11.634c-2.6,3.727-5.25,7.35-7.644,11.287a43.049,43.049,0,0,0-5.323,12.505Z" transform="translate(-41.903 36.916)" fill="url(#linear-gradient-18)"/>
      <path id="Trazado_344" data-name="Trazado 344" d="M109,418.377s.4-.346,1.05-1.05,1.711-1.816,3.034-3.15,3.045-3.055,5.124-5.082,4.588-4.42,7.518-7.528a67.428,67.428,0,0,0,9.555-12.6,51.209,51.209,0,0,0,6.3-20.59,79.925,79.925,0,0,0-1.89-24.948c-1.89-8.736-4.956-17.65-7.885-27.709.483,9.072,1.722,18.091,2.4,27.163s.756,18.238-1.05,27.174a54.829,54.829,0,0,1-4.2,12.936,83.253,83.253,0,0,1-7.077,11.634c-2.6,3.727-5.25,7.35-7.644,11.287A43.05,43.05,0,0,0,109,418.377Z" transform="translate(-35.827 36.919)" fill="url(#linear-gradient-19)"/>
      <path id="Trazado_345" data-name="Trazado 345" d="M109.079,418.365s-.22-.388-.567-1.05-.892-1.754-1.638-2.992a68,68,0,0,0-7.35-9.681c-1.785-2.1-3.958-4.473-6.552-7.728a65.877,65.877,0,0,1-4.021-5.68,64.405,64.405,0,0,1-3.906-7A71.484,71.484,0,0,1,79.28,366.5a77.205,77.205,0,0,1-.819-22.176,115.425,115.425,0,0,0,14.626,37.852q2.646,4.347,5.659,8.484c1.984,2.751,4.011,5.491,5.785,8.4a35.162,35.162,0,0,1,4.2,9.271,21,21,0,0,1,.346,10.038Z" transform="translate(-43.413 39.039)" fill="url(#linear-gradient-20)"/>
      <path id="Trazado_346" data-name="Trazado 346" d="M109.06,418.365a7.261,7.261,0,0,0,.955-.84,11.676,11.676,0,0,0,2.1-3.255,17.524,17.524,0,0,0,1.47-6.657,26.365,26.365,0,0,0-1.6-9.723,48.825,48.825,0,0,0-5.565-10.71c-1.155-1.775-2.383-3.486-3.622-5.25l-4.021-5.67C93.131,368.208,86,358.411,78.4,344.31a115.425,115.425,0,0,0,14.626,37.852q2.646,4.347,5.659,8.484c1.984,2.751,4.011,5.491,5.785,8.4a35.163,35.163,0,0,1,4.2,9.271,21,21,0,0,1,.388,10.048Z" transform="translate(-43.394 39.038)" fill="url(#linear-gradient-21)"/>
      <ellipse id="Elipse_39" data-name="Elipse 39" cx="17.262" cy="9.67" rx="17.262" ry="9.67" transform="translate(137.946 497.059)" fill="#fff"/>
      <path id="Trazado_347" data-name="Trazado 347" d="M186.635,458.175a14.806,14.806,0,0,1-1.186-.976,33.418,33.418,0,0,1-3.244-3.36,40.152,40.152,0,0,1-4.62-6.72,36.159,36.159,0,0,1-2.352-5.187,31.658,31.658,0,0,1-1.68-6.888,29.976,29.976,0,0,1,.116-8.746,36.034,36.034,0,0,1,3.034-9.366c2.845-6.016,7.014-11.193,10.143-16.411a91.175,91.175,0,0,0,8.4-20.107c1.27-4.063,2.5-8.463,3.874-13.114s2.908-9.544,4.872-14.479c-1.585,9.114-2.215,18.364-3.633,27.51a99.645,99.645,0,0,1-2.95,13.555,58.987,58.987,0,0,1-5.439,12.673c-2.32,4.011-5.019,7.78-7.287,11.812a31.415,31.415,0,0,0-4.441,13.03,38.189,38.189,0,0,0,1.6,13.723,117.1,117.1,0,0,0,4.8,13.051Z" transform="translate(-26.607 47.137)" fill="url(#linear-gradient-22)"/>
      <path id="Trazado_348" data-name="Trazado 348" d="M186.308,458.175a12.845,12.845,0,0,0,.147-1.523,43.43,43.43,0,0,0,0-4.588c-.095-2.037-.21-4.557-.336-7.518a56.606,56.606,0,0,1,.241-9.786,26.8,26.8,0,0,1,1.155-5.176,36.757,36.757,0,0,1,2.562-5.607c1.144-2.1,2.6-4.389,4.273-7.077a81.911,81.911,0,0,0,5.25-9.523c3.423-7.486,5.008-16.222,5.25-25.3s-.766-18.648-1.2-29.253c-1.585,9.114-2.215,18.364-3.633,27.51a99.647,99.647,0,0,1-2.95,13.555,58.988,58.988,0,0,1-5.428,12.673c-2.32,4.011-5.019,7.78-7.287,11.812a31.415,31.415,0,0,0-4.441,13.03,38.189,38.189,0,0,0,1.6,13.723,117.092,117.092,0,0,0,4.8,13.051Z" transform="translate(-25.837 47.137)" fill="url(#linear-gradient-23)"/>
      <path id="Trazado_349" data-name="Trazado 349" d="M186.194,460.643a9.607,9.607,0,0,1-.966-1.05,8.98,8.98,0,0,1-1.05-1.533,13.794,13.794,0,0,1-1.05-2.436,20.6,20.6,0,0,1-.945-7.9,33.6,33.6,0,0,1,2.751-11.025,52.416,52.416,0,0,1,3.087-6.058c1.207-2.047,2.53-4.063,4.063-6.195A96.507,96.507,0,0,1,203.7,411.3c2.341-2.237,4.945-4.515,7.7-6.72s5.46-4.2,7.959-6.51a26.123,26.123,0,0,0,6.394-8.253,64.67,64.67,0,0,0,3.916-12.432,63.686,63.686,0,0,1-.693,12.159,26.6,26.6,0,0,1-4.8,11.119,78.4,78.4,0,0,1-8.074,9.124c-2.845,2.908-5.628,5.859-8.337,8.893a180.341,180.341,0,0,0-15.13,19.1,47.251,47.251,0,0,0-5.523,10.836,23.037,23.037,0,0,0-.914,12.022Z" transform="translate(-24.786 48.365)" fill="url(#linear-gradient-24)"/>
      <path id="Trazado_350" data-name="Trazado 350" d="M186.019,460.642s.221-.452.567-1.292c.157-.42.388-.945.672-1.543s.609-1.27.987-2.005a66.5,66.5,0,0,1,8.641-11.823l3.675-4.2c1.355-1.522,2.845-3.265,4.378-5.082,3.087-3.654,6.5-7.822,10.279-12.6,1.89-2.4,3.864-4.924,5.974-7.686a73.293,73.293,0,0,0,6.646-9.838,33.452,33.452,0,0,0,2.677-6.3,26.322,26.322,0,0,0,1.113-7.077,48.3,48.3,0,0,0-2.152-13.776,63.679,63.679,0,0,1-.693,12.159,26.6,26.6,0,0,1-4.8,11.119,78.386,78.386,0,0,1-8.074,9.124c-2.845,2.908-5.628,5.859-8.337,8.893a180.337,180.337,0,0,0-15.13,19.1,47.249,47.249,0,0,0-5.523,10.836A23.037,23.037,0,0,0,186.019,460.642Z" transform="translate(-24.325 48.366)" fill="url(#linear-gradient-25)"/>
      <path id="Trazado_351" data-name="Trazado 351" d="M187.833,460.131s-.409-.157-1.144-.525-1.8-.924-3.15-1.648-2.961-1.6-4.84-2.562c-.934-.483-1.942-.987-3.013-1.491l-3.517-1.638c-1.323-.63-2.824-1.365-4.546-2.373a34.762,34.762,0,0,1-5.628-4.053,36.75,36.75,0,0,1-9.66-13.923,42.429,42.429,0,0,1-2.8-19.75,52.5,52.5,0,0,1,7-21.378,67.567,67.567,0,0,0-1.67,20.223,47.754,47.754,0,0,0,5.659,19.425,40.025,40.025,0,0,0,6.006,8.211,37.586,37.586,0,0,0,3.769,3.423c1.323,1.05,2.709,2.047,4.095,3.045a45.078,45.078,0,0,1,7.717,6.615,36.811,36.811,0,0,1,5.722,8.4Z" transform="translate(-29.866 49.035)" fill="url(#linear-gradient-26)"/>
      <path id="Trazado_352" data-name="Trazado 352" d="M187.573,460.133a8.19,8.19,0,0,0,.231-1.25,15.613,15.613,0,0,0,0-3.78A21.116,21.116,0,0,0,186,448.8a24.99,24.99,0,0,0-2.194-3.853,32.548,32.548,0,0,0-3.286-4.011c-2.457-2.6-5.187-4.872-7.255-7.119a56.4,56.4,0,0,1-6.8-8.883,60.973,60.973,0,0,1-6.3-13.776,88.629,88.629,0,0,1-3.8-20.412,67.567,67.567,0,0,0-1.67,20.223,47.753,47.753,0,0,0,5.659,19.425,40.025,40.025,0,0,0,6.006,8.211,37.58,37.58,0,0,0,3.769,3.423c1.323,1.05,2.709,2.047,4.095,3.045a45.078,45.078,0,0,1,7.717,6.615,36.812,36.812,0,0,1,5.638,8.442Z" transform="translate(-29.239 49.033)" fill="url(#linear-gradient-27)"/>
      <ellipse id="Elipse_40" data-name="Elipse 40" cx="17.262" cy="9.67" rx="17.262" ry="9.67" transform="translate(405.496 335.815)" fill="#fff"/>
      <path id="Trazado_353" data-name="Trazado 353" d="M417.226,318.746s-.42-.3-1.186-.987a32.881,32.881,0,0,1-3.255-3.349,40.6,40.6,0,0,1-4.62-6.72,36.082,36.082,0,0,1-2.341-5.187,31.956,31.956,0,0,1-1.69-6.888,29.63,29.63,0,0,1,.126-8.746,35.637,35.637,0,0,1,3.034-9.366c2.835-6.016,7-11.2,10.143-16.422a91.181,91.181,0,0,0,8.4-20.107c1.26-4.063,2.488-8.463,3.864-13.114s2.909-9.544,4.872-14.479c-1.586,9.114-2.2,18.364-3.622,27.51a99.34,99.34,0,0,1-2.961,13.555,59.038,59.038,0,0,1-5.46,12.726c-2.331,4-5.029,7.77-7.35,11.8a31.647,31.647,0,0,0-4.431,13.041,38.378,38.378,0,0,0,1.659,13.713,117.321,117.321,0,0,0,4.819,13.02Z" transform="translate(9.752 20.984)" fill="url(#linear-gradient-28)"/>
      <path id="Trazado_354" data-name="Trazado 354" d="M416.9,318.746s.084-.514.137-1.533.094-2.551,0-4.578-.21-4.567-.336-7.518a56.577,56.577,0,0,1,.241-9.786,26.632,26.632,0,0,1,1.155-5.176,37.8,37.8,0,0,1,2.562-5.617c1.145-2.1,2.6-4.389,4.284-7.077a82.573,82.573,0,0,0,5.25-9.523c3.423-7.476,5-16.222,5.25-25.3s-.777-18.637-1.207-29.253c-1.585,9.114-2.2,18.364-3.622,27.51a99.321,99.321,0,0,1-2.961,13.555,59.041,59.041,0,0,1-5.46,12.726c-2.331,4-5.029,7.77-7.35,11.8a31.646,31.646,0,0,0-4.431,13.041,38.378,38.378,0,0,0,1.669,13.713,117.308,117.308,0,0,0,4.819,13.02Z" transform="translate(10.076 20.984)" fill="url(#linear-gradient-29)"/>
      <path id="Trazado_355" data-name="Trazado 355" d="M416.724,321.2a9.939,9.939,0,0,1-.966-1.05,9.657,9.657,0,0,1-1.05-1.533,13.94,13.94,0,0,1-1.05-2.446,20.748,20.748,0,0,1-.945-7.9,33.807,33.807,0,0,1,2.751-11.014,52.487,52.487,0,0,1,3.087-6.069c1.208-2.047,2.531-4.063,4.074-6.184a96.517,96.517,0,0,1,11.6-13.156c2.341-2.236,4.945-4.5,7.707-6.72s5.449-4.2,7.959-6.51a25.714,25.714,0,0,0,6.384-8.253,63.938,63.938,0,0,0,3.916-12.432,62.169,62.169,0,0,1-.693,12.169,26.556,26.556,0,0,1-4.8,11.109,77.449,77.449,0,0,1-8.064,9.135c-2.845,2.9-5.638,5.859-8.347,8.883a182.82,182.82,0,0,0-15.13,19.1,47.1,47.1,0,0,0-5.512,10.846,23.1,23.1,0,0,0-.924,12.022Z" transform="translate(10.192 23.576)" fill="url(#linear-gradient-30)"/>
      <path id="Trazado_356" data-name="Trazado 356" d="M416.548,321.2s.231-.451.567-1.292c.157-.42.4-.935.672-1.533s.619-1.27,1.05-2.016a65.423,65.423,0,0,1,8.631-11.812l3.685-4.2c1.344-1.522,2.845-3.255,4.378-5.071,3.087-3.664,6.489-7.833,10.269-12.6,1.9-2.4,3.864-4.924,5.985-7.675a74.449,74.449,0,0,0,6.646-9.849,33.828,33.828,0,0,0,2.667-6.3,26.25,26.25,0,0,0,1.123-7.077A48.3,48.3,0,0,0,460.06,238a62.173,62.173,0,0,1-.693,12.169,26.554,26.554,0,0,1-4.8,11.109,77.451,77.451,0,0,1-8.064,9.135c-2.846,2.9-5.638,5.859-8.347,8.883a182.781,182.781,0,0,0-15.13,19.1,47.1,47.1,0,0,0-5.512,10.846,23.1,23.1,0,0,0-.966,11.959Z" transform="translate(10.367 23.582)" fill="url(#linear-gradient-31)"/>
      <path id="Trazado_357" data-name="Trazado 357" d="M418.422,320.691s-.41-.158-1.134-.525-1.8-.924-3.15-1.638-2.95-1.606-4.83-2.572c-.945-.483-1.943-.976-3.013-1.491l-3.517-1.638c-1.333-.63-2.824-1.365-4.546-2.362a35.7,35.7,0,0,1-5.638-4.053,36.939,36.939,0,0,1-9.66-13.923,42.482,42.482,0,0,1-2.8-19.761,52.5,52.5,0,0,1,7-21.378,67.6,67.6,0,0,0-1.659,20.233A47.586,47.586,0,0,0,391.133,291a38,38,0,0,0,9.765,11.644c1.333,1.05,2.719,2.037,4.095,3.034a44.676,44.676,0,0,1,7.717,6.615,37.043,37.043,0,0,1,5.712,8.4Z" transform="translate(8.556 24.831)" fill="url(#linear-gradient-32)"/>
      <path id="Trazado_358" data-name="Trazado 358" d="M418.163,320.689a8.824,8.824,0,0,0,.241-1.239,16.174,16.174,0,0,0,0-3.78,21.406,21.406,0,0,0-1.816-6.3,25.856,25.856,0,0,0-2.194-3.79,34.225,34.225,0,0,0-3.286-4.011c-2.467-2.6-5.187-4.861-7.266-7.119a56.388,56.388,0,0,1-6.793-8.883,60.625,60.625,0,0,1-6.3-13.765,88.623,88.623,0,0,1-3.8-20.422,67.6,67.6,0,0,0-1.659,20.233,47.586,47.586,0,0,0,5.659,19.414,38,38,0,0,0,9.765,11.644c1.333,1.05,2.719,2.037,4.095,3.034a44.681,44.681,0,0,1,7.717,6.615,37.045,37.045,0,0,1,5.638,8.368Z" transform="translate(8.816 24.834)" fill="url(#linear-gradient-33)"/>
      <path id="Trazado_359" data-name="Trazado 359" d="M129.71,165.715c.756-1.291,1.5-2.583,2.247-3.885C131.285,162.943,130.529,164.245,129.71,165.715Z" transform="translate(-33.392 9.546)" fill="url(#linear-gradient-34)"/>
      <path id="Trazado_360" data-name="Trazado 360" d="M120.921,289.694V271.467a4.3,4.3,0,0,1,0-.735v-.1h0a3.969,3.969,0,0,1,1.984-3.066l157.907-91.055a4.105,4.105,0,0,1,4.095,0l58.411,33.8a4.053,4.053,0,0,1,1.995,3.958v18.228a3.746,3.746,0,0,1,0,.84v.073h0a4.011,4.011,0,0,1-1.974,3.045l-157.855,91.8a4.084,4.084,0,0,1-4.126,0l-58.463-34.555a4.032,4.032,0,0,1-1.953-4Z" transform="translate(-27.83 17.479)" fill="url(#linear-gradient-35)"/>
      <path id="Trazado_361" data-name="Trazado 361" d="M343.339,210.315l-58.411-33.8a4.105,4.105,0,0,0-4.095,0L122.926,267.56a4.084,4.084,0,0,0,0,7.056l58.463,34.492a4.085,4.085,0,0,0,4.126,0l157.865-91.727a4.084,4.084,0,0,0-.042-7.066Z" transform="translate(-27.828 16.437)" fill="#fff"/>
      <g id="Grupo_195" data-name="Grupo 195" transform="translate(173.001 268.787)">
        <path id="Trazado_362" data-name="Trazado 362" d="M204,251.12v0Z" transform="translate(-195.674 -246.64)" fill="#fcfaef"/>
        <path id="Trazado_363" data-name="Trazado 363" d="M204.037,252.479a.284.284,0,0,1,.158.231v-1.365c0-.084-.053-.158-.168-.22v0a.85.85,0,0,0-.777,0v1.354A.872.872,0,0,1,204.037,252.479Z" transform="translate(-195.711 -246.644)" fill="#fcfaef"/>
        <path id="Trazado_364" data-name="Trazado 364" d="M203.061,252.705a.283.283,0,0,1,.157-.231V251.12a.273.273,0,0,0-.168.22Z" transform="translate(-195.721 -246.64)" fill="#fcfaef"/>
        <path id="Trazado_365" data-name="Trazado 365" d="M203.05,251.33v1.365a.252.252,0,0,0,.158.221.872.872,0,0,0,.787,0,.262.262,0,0,0,.157-.221V251.33a.273.273,0,0,1-.168.231.85.85,0,0,1-.777,0A.273.273,0,0,1,203.05,251.33Z" transform="translate(-195.721 -246.629)" fill="#f9f6d9"/>
        <path id="Trazado_366" data-name="Trazado 366" d="M153.46,244.6l.01,1.365,12.663-7.318V237.29Z" transform="translate(-150.877 -235.781)" fill="#fcfaef"/>
        <path id="Trazado_367" data-name="Trazado 367" d="M165.53,237.29v1.355l19.813,11.508V248.8Z" transform="translate(-150.274 -235.781)" fill="#fcfaef"/>
        <path id="Trazado_368" data-name="Trazado 368" d="M172.33,255.568v1.355L185,249.6V248.25Z" transform="translate(-149.934 -235.233)" fill="#c5dbf1"/>
        <path id="Trazado_369" data-name="Trazado 369" d="M225.6,264.375a.578.578,0,0,1,.346.483v-1.365a.588.588,0,0,0-.347-.483h0a1.848,1.848,0,0,0-1.69,0h0a.577.577,0,0,0-.346.493v1.354a.6.6,0,0,1,.346-.483A1.848,1.848,0,0,1,225.6,264.375Z" transform="translate(-194.696 -246.056)" fill="#fcfaef"/>
        <path id="Trazado_370" data-name="Trazado 370" d="M223.56,263.47v1.354a.6.6,0,0,0,.346.493,1.911,1.911,0,0,0,1.69,0,.6.6,0,0,0,.347-.494V263.46a.6.6,0,0,1-.357.493,1.848,1.848,0,0,1-1.69,0,.6.6,0,0,1-.336-.483Z" transform="translate(-194.696 -246.023)" fill="#f9f6d9"/>
        <path id="Trazado_371" data-name="Trazado 371" d="M153.46,244.25l.01,1.365,19.8,11.508v-1.354Z" transform="translate(-150.877 -235.433)" fill="#c5dbf1"/>
        <path id="Trazado_372" data-name="Trazado 372" d="M208.594,247.175a2.919,2.919,0,0,1,2.667,0l22.365,13a.818.818,0,0,1,0,1.543l-11.938,6.888a2.919,2.919,0,0,1-2.667,0l-22.354-13a.819.819,0,0,1,0-1.543Zm9.912,20.013,12.663-7.35-19.8-11.55-12.673,7.35,19.813,11.55m8.494-2.4c.472-.273.472-.7,0-.976a1.848,1.848,0,0,0-1.69,0c-.462.273-.473.7,0,.976a1.848,1.848,0,0,0,1.69,0m-23.394-13.45c-.22.126-.22.326,0,.451a.851.851,0,0,0,.777,0c.221-.126.221-.325,0-.451a.851.851,0,0,0-.777,0" transform="translate(-196.067 -246.853)" fill="#fff"/>
        <path id="Trazado_373" data-name="Trazado 373" d="M203.013,251.007a.4.4,0,0,0,0,.756,1.428,1.428,0,0,0,1.3,0,.4.4,0,0,0,0-.756,1.491,1.491,0,0,0-1.3,0Z" transform="translate(-195.737 -246.653)" fill="#5a5efa"/>
        <path id="Trazado_374" data-name="Trazado 374" d="M224.318,263.244c-.22.137-.231.347,0,.473a.893.893,0,0,0,.8,0c.231-.126.231-.336,0-.473A.914.914,0,0,0,224.318,263.244Z" transform="translate(-194.667 -246.038)" fill="#5a5efa"/>
        <path id="Trazado_375" data-name="Trazado 375" d="M153.46,244.6l19.813,11.518,12.673-7.318L166.133,237.29Z" transform="translate(-150.877 -235.781)" fill="url(#linear-gradient-36)"/>
        <path id="Trazado_376" data-name="Trazado 376" d="M196.616,255.227l22.354,13a2.919,2.919,0,0,0,2.667,0l11.938-6.9a.955.955,0,0,0,.556-.777V261.9a.924.924,0,0,1-.557.777l-11.928,6.9a2.982,2.982,0,0,1-2.667,0l-22.365-13a.935.935,0,0,1-.546-.766V254.45A.934.934,0,0,0,196.616,255.227Z" transform="translate(-196.07 -246.473)" fill="url(#linear-gradient-37)"/>
      </g>
      <path id="Trazado_377" data-name="Trazado 377" d="M204.28,155.3c4.41-4.977,8.263-10.279,9-17.073.556-5.082.42-9.87,2.866-14.521a22.2,22.2,0,0,1,22.512-11.7c10.416,1.354,20.107,10.8,18.049,27.132-.095.714-16.4,5.439-26.25,3,0,.136,0,13.156-.6,20.433-.41,4.966-5.407,8.116-9.66,9.45s-5.649,4.2-6.583,8.4-.84,8.232-1.449,12.337a42.669,42.669,0,0,1-.977,5.88c-1.291,4.41-9.954,3.318-12.883,2.1-6.006-2.541-8.452-9.219-8.7-15.319-.3-7.455,2.656-14.374,6.846-20.412a103.793,103.793,0,0,1,7.833-9.712Z" transform="translate(-22.936 4.547)" fill="url(#linear-gradient-38)"/>
      <path id="Trazado_378" data-name="Trazado 378" d="M282.846,354.208l12.3,9.45,5.092,3.024a6,6,0,0,1,2.9,4.126,10.218,10.218,0,0,1,.074,2.572,5.681,5.681,0,0,1-.955,2.677c-1.165,1.722-3.927,4.441-9.733,4.63a6.11,6.11,0,0,1-3.255-.819l-21.115-12.253a6.132,6.132,0,0,1-3.076-5.5,20.821,20.821,0,0,1,1.155-6.436,4.441,4.441,0,0,1,4.2-2.908Z" transform="translate(-13.017 36.998)" fill="url(#linear-gradient-39)"/>
      <path id="Trazado_379" data-name="Trazado 379" d="M289.037,376.83a6.489,6.489,0,0,0,3.465.882c6.195-.21,9.135-3.15,10.384-4.935a6.371,6.371,0,0,0,.336-.577v.64a5.681,5.681,0,0,1-.956,2.677c-1.165,1.722-3.927,4.441-9.733,4.63a6.111,6.111,0,0,1-3.255-.819l-21.136-12.211a6.1,6.1,0,0,1-2.982-4.357,6.679,6.679,0,0,0,1.354,1.05Z" transform="translate(-13.01 37.713)" fill="url(#linear-gradient-40)"/>
      <path id="Trazado_380" data-name="Trazado 380" d="M275.936,361.058c3.717,0,5.575-1.544,5.575-5.25l1.249-12.967a6.73,6.73,0,0,0-13.461,0l.935,12.715C270.235,359.262,272.219,361.058,275.936,361.058Z" transform="translate(-13.636 34.478)" fill="#fbbe9e"/>
      <path id="Trazado_381" data-name="Trazado 381" d="M281.926,362.917l.556-.179a4.779,4.779,0,0,0,2.1-1.375h0a4.82,4.82,0,0,0,1.2-3.958l-.483-3.213a2.509,2.509,0,0,0-3.486-1.921l-5.67,2.52a2.5,2.5,0,0,0-1.207,3.433l1.2,2.31a4.861,4.861,0,0,0,5.8,2.383Z" transform="translate(-12.995 35.847)" fill="url(#linear-gradient-41)"/>
      <path id="Trazado_382" data-name="Trazado 382" d="M278.992,354.17h0c5.785,0,10.5-2.824,10.437-8.6l-.168-52.027a54.263,54.263,0,0,0-26.544-46.336l-38.776-22.816a10.5,10.5,0,0,0-10.626,18.049l38.776,22.806a33.253,33.253,0,0,1,16.233,28.35l.168,52.027C268.534,351.409,273.217,354.17,278.992,354.17Z" transform="translate(-19.38 24.113)" fill="url(#linear-gradient-42)"/>
      <path id="Trazado_383" data-name="Trazado 383" d="M283.812,221.129a106.923,106.923,0,0,0,11.55-.609,6.73,6.73,0,1,0-1.47-13.377c-12.169,1.323-27.373.115-30.607-3.78-6.373-7.665-10.9-24.465-12.075-37.064a6.73,6.73,0,1,0-13.4,1.249c1.05,10.972,5.344,32.675,15.109,44.435C259.253,219.586,273.386,221.129,283.812,221.129Z" transform="translate(-15.752 10.954)" fill="url(#linear-gradient-43)"/>
      <path id="Trazado_384" data-name="Trazado 384" d="M294.26,207.35c.095,0,9.145.493,13.356.976,2.751.315,4.347,3.832,5.9,5.838a10.227,10.227,0,0,1,1.785,6.184c-.735,4.284-4.525,5.586-7.224,5.449a50.4,50.4,0,0,0-.43,6.9c0,.651-.672.819-1.2.672-.987-.262-1.2-1.05-1.375-1.921s-.346-3.465-.451-5.491a11.95,11.95,0,0,0-.966-3.99,2.639,2.639,0,0,1-.105-.3c-2.95-.095-1.407-4.368-1.984-5.25-.4-.651-6.993-.682-7.5-.682-1.963,0-3.381-2.152-3.381-4.357a3.791,3.791,0,0,1,3.57-4.021Z" transform="translate(-10.048 16.52)" fill="#fbc8ad"/>
      <path id="Trazado_385" data-name="Trazado 385" d="M244.552,298.659a10.6,10.6,0,0,0,2.835-.388,267.445,267.445,0,0,0,32.025-11.55c16.054-7.1,37.159-18.564,35.132-36.13-1.869-16.233-22.743-22.7-38.282-26.166a239.313,239.313,0,0,0-30.156-4.515,10.5,10.5,0,0,0-1.617,20.874h0c21.43,1.648,44.362,7.476,48.94,12.3-1.123,1.774-6.037,7.549-25.2,15.655a252.644,252.644,0,0,1-26.523,9.366,10.5,10.5,0,0,0,2.814,20.559Z" transform="translate(-15.401 20.605)" fill="url(#linear-gradient-44)"/>
      <path id="Trazado_386" data-name="Trazado 386" d="M216.377,160.353h0c5.334-3.906,17.472-7.623,24.15-7.413,22.932.756,10.5,37.4,13.576,56.1,1.627,9.712,10.048,9.229,5.176,18.07-6.006,10.941-22.585,21.441-35.111,21.661-4.032.063-10.5-2.1-13.461-4.861-4.956-4.63-3.769-12.6-3.1-18.616,1.354-12.169,3.339-24.423,3.15-36.665C210.623,179.253,207.694,166.8,216.377,160.353Z" transform="translate(-20.856 11.084)" fill="url(#linear-gradient-45)"/>
      <path id="Trazado_387" data-name="Trazado 387" d="M237.562,170.146c4.2,0,2.2-6.8,2.2-10.962L240.817,144a7.528,7.528,0,1,0-15.046,0v15.183C225.76,163.342,233.362,170.146,237.562,170.146Z" transform="translate(-19.676 6.748)" fill="#fbbe9e"/>
      <path id="Trazado_388" data-name="Trazado 388" d="M217.413,132.4c-.514,4.252,2.005,14.206,6.3,18.28,6.594,6.3,16.338,7.875,18.1,7.056,5.9-2.719,11.466-13.587,12.358-20.842,1.323-10.836-5.827-20.611-15.97-21.85S218.736,121.577,217.413,132.4Z" transform="translate(-20.017 3.924)" fill="#fbc8ad"/>
      <path id="Trazado_389" data-name="Trazado 389" d="M217.413,132.4c1.323-10.825,10.626-18.6,20.758-17.356s17.293,11.014,15.97,21.85a31.416,31.416,0,0,1-2.394,8.253,26.743,26.743,0,0,1-13.545,2.1,8.032,8.032,0,0,0-8.6,6.489c-.063.336-.126.672-.2,1.05a25.2,25.2,0,0,1-5.722-4.063C219.419,146.609,216.9,136.655,217.413,132.4Z" transform="translate(-20.018 3.858)" fill="#fbbe9e"/>
      <path id="Trazado_390" data-name="Trazado 390" d="M230.738,299.275l-15,8.662-5.029,3.15a5.943,5.943,0,0,1-4.987.682,9.659,9.659,0,0,1-2.32-1.113,5.712,5.712,0,0,1-1.953-2.1c-.987-1.816-2.1-5.523.347-10.773a6.1,6.1,0,0,1,2.215-2.509l20.538-13.188a6.111,6.111,0,0,1,6.3-.21,20.477,20.477,0,0,1,5.187,3.969,4.431,4.431,0,0,1,.64,5.1Z" transform="translate(-22.496 27.095)" fill="url(#linear-gradient-46)"/>
      <path id="Trazado_391" data-name="Trazado 391" d="M206.346,296.23a6.467,6.467,0,0,0-2.362,2.677c-2.656,5.6-1.417,9.544-.368,11.487a6.315,6.315,0,0,0,.347.567c-.179-.105-.357-.189-.546-.315a5.711,5.711,0,0,1-1.953-2.1c-.987-1.816-2.1-5.523.346-10.773a6.1,6.1,0,0,1,2.215-2.51l20.538-13.188a6.09,6.09,0,0,1,5.25-.662,6.165,6.165,0,0,0-1.554.724Z" transform="translate(-22.758 27.039)" fill="url(#linear-gradient-47)"/>
      <path id="Trazado_392" data-name="Trazado 392" d="M228.153,298.116c.882,0,.452,0,1.313-.378l12.894-4.273c3.423-1.46,3.276-5.25,1.816-8.62s-3.675-5.25-7.1-3.769l-11.991,7.6a4.756,4.756,0,0,0-1.5,5.47C224.677,296.709,225.538,298.116,228.153,298.116Z" transform="translate(-19.766 26.346)" fill="#fbbe9e"/>
      <path id="Trazado_393" data-name="Trazado 393" d="M221.76,293.782v.661a5.513,5.513,0,0,0,.9,2.7h0a5.418,5.418,0,0,0,3.979,2.394l3.643.378a2.814,2.814,0,0,0,3.055-3.265l-1.165-6.867a2.8,2.8,0,0,0-3.4-2.268l-2.845.662A5.428,5.428,0,0,0,221.76,293.782Z" transform="translate(-20.367 27.046)" fill="url(#linear-gradient-48)"/>
      <g id="Grupo_196" data-name="Grupo 196" transform="translate(241.706 239.431)">
        <path id="Trazado_394" data-name="Trazado 394" d="M269.33,228.38v0Z" transform="translate(-253.717 -219.951)" fill="#fcfaef"/>
        <path id="Trazado_395" data-name="Trazado 395" d="M269.41,230.951a.525.525,0,0,1,.3.42v-2.562a.525.525,0,0,0-.3-.42v0a1.586,1.586,0,0,0-1.47,0v2.562A1.607,1.607,0,0,1,269.41,230.951Z" transform="translate(-253.786 -219.959)" fill="#fcfaef"/>
        <path id="Trazado_396" data-name="Trazado 396" d="M267.641,231.372a.525.525,0,0,1,.3-.43V228.38a.515.515,0,0,0-.315.431C267.63,229.577,267.641,230.606,267.641,231.372Z" transform="translate(-253.802 -219.951)" fill="#fcfaef"/>
        <path id="Trazado_397" data-name="Trazado 397" d="M267.63,228.79v2.562a.515.515,0,0,0,.3.42,1.586,1.586,0,0,0,1.47,0,.515.515,0,0,0,.315-.43V228.78a.525.525,0,0,1-.3.431,1.607,1.607,0,0,1-1.48,0A.525.525,0,0,1,267.63,228.79Z" transform="translate(-253.802 -219.931)" fill="#f9f6d9"/>
        <path id="Trazado_398" data-name="Trazado 398" d="M214.05,225.826l.01,2.562,23.856-13.776V212.05Z" transform="translate(-209.157 -209.217)" fill="#fcfaef"/>
        <path id="Trazado_399" data-name="Trazado 399" d="M236.78,212.05v2.562l37.306,21.672-.01-2.562Z" transform="translate(-208.021 -209.217)" fill="#fcfaef"/>
        <path id="Trazado_400" data-name="Trazado 400" d="M249.57,246.466l.011,2.562,23.866-13.776-.011-2.562Z" transform="translate(-207.382 -208.185)" fill="#c5dbf1"/>
        <path id="Trazado_401" data-name="Trazado 401" d="M310.091,253.34a1.113,1.113,0,0,1,.651.913v-2.562a1.113,1.113,0,0,0-.651-.914h0a3.476,3.476,0,0,0-3.15,0v0a1.123,1.123,0,0,0-.662.924v2.562a1.123,1.123,0,0,1,.661-.924,3.475,3.475,0,0,1,3.15,0Z" transform="translate(-251.87 -218.85)" fill="#fcfaef"/>
        <path id="Trazado_402" data-name="Trazado 402" d="M306.24,251.64V254.2a1.113,1.113,0,0,0,.651.913,3.539,3.539,0,0,0,3.15,0,1.123,1.123,0,0,0,.661-.924V251.63a1.124,1.124,0,0,1-.661.924,3.539,3.539,0,0,1-3.15,0A1.123,1.123,0,0,1,306.24,251.64Z" transform="translate(-251.872 -218.789)" fill="#f9f6d9"/>
        <path id="Trazado_403" data-name="Trazado 403" d="M214.05,225.17l.01,2.562,37.3,21.672-.011-2.562Z" transform="translate(-209.157 -208.561)" fill="#c5dbf1"/>
        <path id="Trazado_404" data-name="Trazado 404" d="M277.989,220.959a5.491,5.491,0,0,1,5.019,0l42.115,24.475c1.386.8,1.375,2.1,0,2.908l-22.47,12.967a5.512,5.512,0,0,1-5.029,0l-42.1-24.475c-1.386-.8-1.375-2.1,0-2.908Zm18.658,37.673,23.866-13.776-37.306-21.672-23.856,13.776,37.3,21.672m16.012-4.515a.966.966,0,0,0,0-1.837,3.476,3.476,0,0,0-3.15,0,.977.977,0,0,0,0,1.837,3.538,3.538,0,0,0,3.15,0m-44.1-25.336c-.41.231-.42.62,0,.851a1.606,1.606,0,0,0,1.48,0,.452.452,0,0,0,0-.85,1.586,1.586,0,0,0-1.47,0" transform="translate(-254.459 -220.352)" fill="#fff"/>
        <path id="Trazado_405" data-name="Trazado 405" d="M267.494,228.124a.746.746,0,0,0,0,1.417,2.709,2.709,0,0,0,2.446,0,.746.746,0,0,0,0-1.417A2.688,2.688,0,0,0,267.494,228.124Z" transform="translate(-253.834 -219.978)" fill="#5a5efa"/>
        <path id="Trazado_406" data-name="Trazado 406" d="M307.675,251.219c-.42.252-.42.64,0,.882a1.69,1.69,0,0,0,1.522,0,.472.472,0,0,0,0-.882,1.69,1.69,0,0,0-1.523,0Z" transform="translate(-251.816 -218.818)" fill="#5a5efa"/>
        <path id="Trazado_407" data-name="Trazado 407" d="M214.05,225.826l37.3,21.672,23.866-13.776-37.3-21.672Z" transform="translate(-209.157 -209.217)" fill="url(#linear-gradient-49)"/>
        <path id="Trazado_408" data-name="Trazado 408" d="M255.51,236.119l42.1,24.475a5.513,5.513,0,0,0,5.029,0l22.47-12.978a1.764,1.764,0,0,0,1.05-1.47v2.562a1.785,1.785,0,0,1-1.05,1.47l-22.47,12.967a5.491,5.491,0,0,1-5.019,0L255.51,238.67a1.753,1.753,0,0,1-1.05-1.438V234.67a1.743,1.743,0,0,0,1.05,1.449Z" transform="translate(-254.46 -219.636)" fill="url(#linear-gradient-50)"/>
      </g>
      <path id="Trazado_409" data-name="Trazado 409" d="M265.54,254.651a6.73,6.73,0,0,0,2.488-12.988c-13.818-5.491-35.353-15.75-39.9-21.231-8.4-10.09-6.373-36.518-5.019-44.992a6.73,6.73,0,1,0-13.294-2.1,138.1,138.1,0,0,0-1.416,20.79c.137,15.855,3.286,27.615,9.366,34.933,8.4,10.143,39.238,22.722,45.328,25.137A6.709,6.709,0,0,0,265.54,254.651Z" transform="translate(-20.212 13.022)" fill="url(#linear-gradient-51)"/>
      <path id="Trazado_410" data-name="Trazado 410" d="M225.073,232.944a37.8,37.8,0,0,1-7.528-6.384,33.684,33.684,0,0,1-5.355-9.45C219.34,218.464,224.59,225.541,225.073,232.944Z" transform="translate(-21.659 17.498)" fill="url(#linear-gradient-52)"/>
      <path id="Trazado_411" data-name="Trazado 411" d="M267.489,241.292c-13.818-5.491-35.353-15.75-39.9-21.231-8.4-10.09-6.373-36.518-5.019-44.992-5.89,16.411-3.475,39.1,2.614,46.42C233.575,231.633,270.944,242.668,267.489,241.292Z" transform="translate(-19.262 13.359)" fill="url(#linear-gradient-53)"/>
      <path id="Trazado_412" data-name="Trazado 412" d="M266.34,241.66c.21-.22,7.654,4,10.878,4.116,3.874.147,7.35,1.617,11,1.386a.641.641,0,0,1,.682.767c-.714,2.919-5.439,3.087-6.9,3.475-2.352.619-.483,2.278-.483,2.278s6.552,3.864,6.615,3.843c-3.7.693-8.683,1.669-12.211,0-3.811-1.848-12.2-7.56-13.23-9.807C261.573,244.968,263.284,241.471,266.34,241.66Z" transform="translate(-13.993 20.928)" fill="#fbc8ad"/>
      <path id="Trazado_413" data-name="Trazado 413" d="M196.427,164.991a103.8,103.8,0,0,1,7.854-9.691c4.41-4.977,8.263-10.279,9-17.073.556-5.082.42-9.87,2.866-14.521a22.2,22.2,0,0,1,22.512-11.7c10.416,1.354,20.7,11.886,18.637,28.224-.074.6-7.8,6.73-19.383,4.452a6.352,6.352,0,0,0-7.57,6.174c-.074,3.937-.22,8.4-.5,11.77-.41,4.966-4.578,9.838-9.03,10.027-17.388.745-26.859,14.059-25.137,26.575-4.116-3.15-5.88-8.673-6.09-13.786C189.277,177.948,192.248,171.018,196.427,164.991Z" transform="translate(-22.916 4.482)" fill="url(#linear-gradient-54)"/>
      <path id="Trazado_414" data-name="Trazado 414" d="M54.7,238.787c16.369,7.644,51.26-22.627,62.012-37.159,10.594-14.311,15.466-62.4,0-71.231-15.634-8.925-53.087,21-62.012,36.6S38.435,231.186,54.7,238.787Z" transform="translate(-45.06 7.815)" fill="url(#linear-gradient-55)"/>
      <path id="Trazado_415" data-name="Trazado 415" d="M33.17,161.72l.074,26.985,23.226-21.378Z" transform="translate(1.668 22.7)" fill="#fff"/>
      <path id="Trazado_416" data-name="Trazado 416" d="M271.182,161.265c8.988,4.2,28.15-12.421,34.051-20.4s8.494-34.261,0-39.112-29.148,11.55-34.051,20.1S262.247,157.1,271.182,161.265Z" transform="translate(-12.548 2.253)" fill="url(#linear-gradient-56)"/>
      <path id="Trazado_417" data-name="Trazado 417" d="M283.225,131.078v9.093l10.038-5.785v-9.1l4.609-2.656a.272.272,0,0,0,.105-.136v-.168h0l-4.767-3.328-4.882-3.4a.115.115,0,0,0-.115,0,.3.3,0,0,0-.105.126l-4.882,8.977-4.735,8.82v.22a.073.073,0,0,0,.1,0Z" transform="translate(-12.049 3.644)" fill="#fff"/>
      <path id="Trazado_418" data-name="Trazado 418" d="M237.961,131.734l10.038-5.8-.01-1.858-10.038,5.785Z" transform="translate(33.188 16.989)" fill="#fff"/>
      <path id="Trazado_419" data-name="Trazado 419" d="M248,127.42l-10.038,5.785.01,1.869,10.038-5.785Z" transform="translate(33.189 17.446)" fill="#fff"/>
      <path id="Trazado_420" data-name="Trazado 420" d="M53.406,294.36c7.35,3.444,23.1-10.2,27.951-16.747s6.972-28.129,0-32.109S57.4,254.975,53.406,262.021,46.077,290.958,53.406,294.36Z" transform="translate(-44.86 22.875)" fill="url(#linear-gradient-57)"/>
      <path id="Trazado_421" data-name="Trazado 421" d="M72.387,265.1c0-3.055-2.173-4.294-4.819-2.761a10.5,10.5,0,0,0-4.788,8.305c0,3.045,2.163,4.273,4.819,2.74a10.584,10.584,0,0,0,4.788-8.284Zm-5.607,3.213a1.733,1.733,0,0,1,.8-1.386c.441-.262.808-.052.808.451a1.743,1.743,0,0,1-.808,1.386C67.137,269.04,66.78,268.841,66.78,268.316Z" transform="translate(-44.175 23.499)" fill="none"/>
      <path id="Trazado_422" data-name="Trazado 422" d="M69.021,277.641v-1.218a13.521,13.521,0,0,0,1.659-1.47l.535.756c0,.063.126.063.22,0a.273.273,0,0,0,.116-.105l1.669-2.1c.116-.147.157-.336.084-.431l-.535-.756a17.355,17.355,0,0,0,1.218-2.1l.913.084a.189.189,0,0,0,.126,0,.535.535,0,0,0,.21-.263l.955-2.467c.073-.178,0-.325-.084-.336l-.924-.084a14.21,14.21,0,0,0,.43-2.1l1.05-.619a.525.525,0,0,0,.252-.431V261.8c0-.157-.105-.22-.242-.136l-1.05.609a6.427,6.427,0,0,0-.441-1.648l.924-1.134c.116-.147.157-.346.084-.441l-.966-1.365c0-.063-.126-.063-.22,0a.631.631,0,0,0-.126.115l-.913,1.134a3.781,3.781,0,0,0-1.218-.693l.525-1.355c.073-.178,0-.325-.084-.336L71.52,256.4h-.126a.514.514,0,0,0-.21.273l-.525,1.355a6.877,6.877,0,0,0-1.659.451v-1.218c0-.158-.1-.22-.241-.147l-1.932,1.123a.536.536,0,0,0-.231.41v1.228a14.355,14.355,0,0,0-1.659,1.46l-.535-.745a.147.147,0,0,0-.21,0,.556.556,0,0,0-.126.1l-1.659,2.1c-.126.136-.168.346-.084.43l.525.745a22.106,22.106,0,0,0-1.207,2.1l-.913-.084H60.6a.651.651,0,0,0-.221.273l-.955,2.467c-.063.178,0,.326.094.336l.913.084A14.456,14.456,0,0,0,60,271.3l-1.05.609a.536.536,0,0,0-.252.43v2.205c0,.168.1.231.252.147l1.05-.619a7.109,7.109,0,0,0,.441,1.648l-.913,1.155a.388.388,0,0,0-.084.43l.955,1.365a.157.157,0,0,0,.221,0,.555.555,0,0,0,.126-.105l.913-1.144a3.434,3.434,0,0,0,1.218.693l-.525,1.365c-.073.179,0,.326.084.336l1.669.147a.2.2,0,0,0,.126,0,.5.5,0,0,0,.21-.252l.525-1.376a6.2,6.2,0,0,0,1.669-.451v1.2c0,.157.105.22.242.147l1.9-1.2A.556.556,0,0,0,69.021,277.641Zm-6.037-6.73a10.5,10.5,0,0,1,4.788-8.305c2.646-1.533,4.809-.294,4.819,2.761a10.584,10.584,0,0,1-4.788,8.284C65.147,275.184,62.994,273.956,62.984,270.911Z" transform="translate(-44.378 23.273)" fill="#fff"/>
      <path id="Trazado_423" data-name="Trazado 423" d="M68.2,267.157c0-.5-.367-.714-.808-.451a1.733,1.733,0,0,0-.8,1.386c0,.5.357.7.8.451A1.743,1.743,0,0,0,68.2,267.157Z" transform="translate(-43.984 23.715)" fill="#fff"/>
    </g>
  </g>
</svg>
