<svg xmlns="http://www.w3.org/2000/svg" width="538.924" height="371.7" viewBox="0 0 538.924 371.7">
  <g id="Grupo_156" data-name="Grupo 156" transform="translate(-253.1 -392.3)">
    <g id="Grupo_147" data-name="Grupo 147" transform="translate(537.142 465.245)">
      <path id="Trazado_188" data-name="Trazado 188" d="M319.889,243.07,266.6,166.618c2.274-1.563,5.4-2.842,7.958-1.563,4.263,2.132,4.121,5.542,4.974,9.663,2.274,10.231,15.347,6.821,22.879,10.942,6.11,3.41,7.958,8.526,7.247,15.347-.426,4.689-3.41,9.663,1.137,13.358,3.41,2.7,8.526.995,11.937,3.553,5.116,3.695-.426,7.958,0,12.221.426,3.41,4.121,2.984,5.258,5.968C329.41,239.375,322.589,243.212,319.889,243.07Z" transform="translate(-261.886 -164.532)" fill="#517c44"/>
      <path id="Trazado_189" data-name="Trazado 189" d="M320.859,242.652,267.57,166.2c-2.274,1.563-4.547,4.121-4.263,6.963.568,4.832,3.837,5.826,7.247,8.1,8.81,5.684.995,16.768,2.416,25.295.995,6.821,5.258,10.374,11.795,12.079,4.547,1.137,10.232.142,12.079,5.684,1.421,4.121-1.989,8.384-.711,12.505,1.705,6.11,7.674,2.274,11.51,4.263,3.126,1.563,1.421,4.974,3.695,6.963C314.18,250.326,320.007,245.21,320.859,242.652Z" transform="translate(-263.283 -163.83)" fill="#517c44"/>
      <path id="Trazado_190" data-name="Trazado 190" d="M333.259,261.822h0c-.284.142-.568.142-.711-.142l-66.221-94.641c-.142-.284-.142-.568.142-.711h0c.284-.142.568-.142.711.142L333.4,261.111A.5.5,0,0,1,333.259,261.822Z" transform="translate(-262.04 -163.815)" fill="#517c44"/>
      <line id="Línea_12" data-name="Línea 12" x2="11.795" y2="2.7" transform="translate(13.524 29.654)" fill="#9eb8f2"/>
      <line id="Línea_13" data-name="Línea 13" x2="25.295" y2="1.137" transform="translate(13.95 50.117)" fill="#9eb8f2"/>
      <line id="Línea_14" data-name="Línea 14" y1="19.752" x2="8.668" transform="translate(32.85 23.402)" fill="#9eb8f2"/>
      <line id="Línea_15" data-name="Línea 15" x2="19.326" y2="1.847" transform="translate(33.703 69.586)" fill="#9eb8f2"/>
      <line id="Línea_16" data-name="Línea 16" y1="11.795" x2="5.826" transform="translate(48.34 52.675)" fill="#9eb8f2"/>
    </g>
    <g id="Grupo_148" data-name="Grupo 148" transform="translate(654.024 469.934)">
      <path id="Trazado_191" data-name="Trazado 191" d="M357.426,246.086l53.431-76.168c-2.274-1.563-5.4-2.842-7.958-1.563-4.405,2.132-4.121,5.542-4.974,9.663-2.274,10.232-15.347,6.679-22.879,10.8-6.11,3.41-7.958,8.526-7.247,15.205.426,4.689,3.41,9.663-1.137,13.216-3.41,2.7-8.526.995-11.937,3.553-5.116,3.695.426,7.958,0,12.221-.426,3.41-4.121,2.984-5.258,5.968C347.9,242.391,354.726,246.228,357.426,246.086Z" transform="translate(-343.975 -167.832)" fill="#517c44"/>
      <path id="Trazado_192" data-name="Trazado 192" d="M355.2,245.668,408.631,169.5c2.274,1.563,4.547,4.121,4.263,6.963-.568,4.832-3.837,5.826-7.389,7.958-8.953,5.684-.995,16.768-2.416,25.152-.995,6.821-5.258,10.374-11.795,12.079-4.547,1.137-10.232.142-12.079,5.684-1.421,4.121,1.989,8.384.711,12.363-1.705,6.11-7.674,2.274-11.51,4.263-3.126,1.563-1.421,4.974-3.837,6.963C362.021,253.341,356.053,248.226,355.2,245.668Z" transform="translate(-341.465 -167.13)" fill="#517c44"/>
      <path id="Trazado_193" data-name="Trazado 193" d="M345.77,264.922h0c.284.142.568.142.711-.142L412.7,170.138c.142-.284.142-.568-.142-.711h0c-.284-.142-.568-.142-.711.142l-66.221,94.5C345.486,264.353,345.486,264.78,345.77,264.922Z" transform="translate(-345.534 -167.2)" fill="#517c44"/>
      <line id="Línea_17" data-name="Línea 17" x1="11.795" y2="2.7" transform="translate(46.135 29.37)" fill="#9eb8f2"/>
      <line id="Línea_18" data-name="Línea 18" x1="25.295" y2="1.137" transform="translate(32.209 49.833)" fill="#9eb8f2"/>
      <line id="Línea_19" data-name="Línea 19" x1="8.526" y1="19.752" transform="translate(29.935 23.117)" fill="#9eb8f2"/>
      <line id="Línea_20" data-name="Línea 20" x1="19.468" y2="1.847" transform="translate(18.283 69.301)" fill="#9eb8f2"/>
      <line id="Línea_21" data-name="Línea 21" x1="5.684" y1="11.795" transform="translate(17.288 52.391)" fill="#9eb8f2"/>
    </g>
    <g id="Grupo_149" data-name="Grupo 149" transform="translate(598.561 392.3)">
      <path id="Trazado_194" data-name="Trazado 194" d="M329.874,257.009,327.6,113.2c4.121,0,9.095,1.137,11.226,4.974,3.553,6.537.426,10.658-1.847,16.626-5.826,15.063,13.358,21.884,19.326,33.821,4.689,9.521,2.7,17.905-3.695,25.863-4.547,5.542-12.363,9.379-9.663,18.047,1.989,6.395,9.663,8.668,11.795,14.921,3.268,9.237-7.247,9.805-10.232,15.774-2.416,4.689,2.7,7.389,1.563,12.079C344.795,260.42,333.142,259.425,329.874,257.009Z" transform="translate(-297.621 -113.2)" fill="#517c44"/>
      <path id="Trazado_195" data-name="Trazado 195" d="M338.046,257.009,335.772,113.2c-4.121,0-9.095,1.421-11.084,5.258-3.41,6.537-.142,10.658,2.274,16.626,6.253,14.921-12.789,22.31-18.189,34.389-4.405,9.663-2.132,17.905,4.547,25.721,4.689,5.4,12.647,9.095,10.232,17.621-1.705,6.395-9.379,9.095-11.368,15.205-2.984,9.237,7.531,9.521,10.658,15.347,2.558,4.689-2.416,7.532-1.137,12.221C323.409,260.988,334.919,259.567,338.046,257.009Z" transform="translate(-306.504 -113.2)" fill="#517c44"/>
      <path id="Trazado_196" data-name="Trazado 196" d="M330.195,292.82h0a.917.917,0,0,1-.853-.853L326.5,114.053a.917.917,0,0,1,.853-.853h0a.917.917,0,0,1,.853.853l2.842,177.914A.819.819,0,0,1,330.195,292.82Z" transform="translate(-298.084 -113.2)" fill="#517c44"/>
      <line id="Línea_22" data-name="Línea 22" x2="12.931" y2="13.642" transform="translate(17.331 42.063)" fill="#9eb8f2"/>
      <line id="Línea_23" data-name="Línea 23" x2="31.547" y2="23.305" transform="translate(0.137 68.778)" fill="#9eb8f2"/>
      <line id="Línea_24" data-name="Línea 24" y1="17.763" x2="28.137" transform="translate(30.547 58.405)" fill="#9eb8f2"/>
      <line id="Línea_25" data-name="Línea 25" x2="23.305" y2="19.184" transform="translate(8.663 110.699)" fill="#9eb8f2"/>
      <line id="Línea_26" data-name="Línea 26" y1="10.089" x2="17.621" transform="translate(31.968 106.72)" fill="#9eb8f2"/>
    </g>
    <path id="Trazado_197" data-name="Trazado 197" d="M303.3,232.8V354.015a11.25,11.25,0,0,0,11.226,11.226h49.31a11.25,11.25,0,0,0,11.226-11.226V232.8Z" transform="translate(290.708 329.457)" fill="#fff" stroke="#38404e" stroke-width="1"/>
    <path id="Trazado_198" data-name="Trazado 198" d="M594.251,347.473a21.713,21.713,0,0,0-4.405-18.331c-16.058-20.747-53.431-11.51-77.873-8.1-20.747,2.984-41.494,8.81-62.526,10.516a899.27,899.27,0,0,1-122.21,1.705c-39.647-1.989-78.015-9.663-116.668-16.2-32.542-5.4-71.194-10.232-102.315,2.274-27.142,10.942-38.084,42.2-11.937,60.394,19.326,13.5,45.331,16.058,68.068,19.042,36.663,4.832,74.321,2.842,110.557-4.121,41.352-7.958,81.426-20.037,123.915-20.889,36.663-.711,73.61.568,110.273,2.274,20.889.995,45.047-.711,64.373-7.674C584.73,364.525,592.262,356.425,594.251,347.473Z" transform="translate(197.281 362.572)" fill="#e55173"/>
    <path id="Trazado_199" data-name="Trazado 199" d="M349.484,293.521c-3.979-4.547-6.253-10.089-9.237-15.205-3.553-6.11-8.953-10.8-15.063-14.353A56.482,56.482,0,0,0,303.3,257v86.826a11.25,11.25,0,0,0,11.226,11.226h49.31a11.25,11.25,0,0,0,11.226-11.226V300.342C365.684,302.615,356.589,301.621,349.484,293.521Z" transform="translate(290.708 339.646)" fill="#38404e"/>
    <path id="Trazado_200" data-name="Trazado 200" d="M212.84,256.252c.142-7.816,2.558-15.631,1.989-23.447a38.094,38.094,0,0,1-.995-3.837,2.5,2.5,0,0,1-.284-1.989,34.839,34.839,0,0,1-.284-3.837,21.919,21.919,0,0,1,.995-10.942c-5.968.853-12.079,1.705-18.047,2.274-.284,1.137-.426,2.416-.711,3.553-2.984,13.216-5.4,27.995-17.337,34.389-14.921,8.1-22.452,23.589-6.537,38.226.426,1.279.426,3.553.853,5.116a47.427,47.427,0,0,0,4.405,10.374,33.6,33.6,0,0,0,12.079,12.363c2.416,1.421,7.532,5.258,9.947,4.689,1.421,10.089,2.274,20.179,3.837,30.268.711,5.116,3.837,16.342.853,21.031-2.274,3.695-10.089,2.984-13.784,3.837-2.984.711-21.458,3.553-20.321,8.242a147.679,147.679,0,0,0,19.468,1.279c4.832.142,9.663.284,14.495.284,2.7,0,6.395,1.137,8.384-.568,2.274-1.989,1.137-6.253.995-8.953-.142-3.41.284-6.821.284-10.232.142-8.1,3.979-14.495,3.979-22.452a26.237,26.237,0,0,1,4.689,3.411V301.157C205.877,295.473,212.556,269.042,212.84,256.252Z" transform="translate(231.532 320.783)" fill="#f79e6a"/>
    <path id="Trazado_201" data-name="Trazado 201" d="M171.5,278.852c.426,1.279.426,3.553.853,5.116a9.191,9.191,0,0,0,.568,1.847,183.558,183.558,0,0,1,38.51-3.979h0l1.279-2.558a32.232,32.232,0,0,1-.853-3.553c-8.526,2.558-17.621,2.558-24.584-3.126-8.526-6.821-10.8-20.605-8.242-32.4-.284.142-.568.426-.853.568C163.255,248.726,155.723,264.216,171.5,278.852Z" transform="translate(231.523 332.572)" fill="#e55173"/>
    <path id="Trazado_202" data-name="Trazado 202" d="M500.34,347.71c-4.121-1.137-8.668,0-12.789-1.705-3.126-1.279-5.542-4.121-7.816-6.679-9.379-11.226-14.21-5.684-24.158.426-8.384,5.116-17.337,0-25.437-2.984-27.852-10.089-58.831-14.068-88.247-14.779-24.016-.568-48.6-1.705-69.773-14.21-6.395-3.837-13.074-10.232-21.031-9.521,1.137-8.384-6.395-17.053-13.216-20.889-9.521-5.4-19.61.284-29.558-1.847-1.563-.284-6.537-.853-7.816-1.421v24.158a35.617,35.617,0,0,1,0,11.653v11.653c2.132,1.705,7.958,3.695,10.231,5.116,22.879,15.347,48.458,25.437,75.884,28.563,30.552,3.41,61.1-.426,91.8-.142,25.01.284,50.589.568,75.315,3.837,12.789,1.705,25.437,1.705,38.368,1.705a91.832,91.832,0,0,0,15.347-.995c1.563-.284,3.837-.853,5.542-.568C514.408,354.247,503.75,348.7,500.34,347.71Z" transform="translate(247.425 346.846)" fill="#e55173"/>
    <path id="Trazado_203" data-name="Trazado 203" d="M434.206,335.825c-19.468-5.4-40.073-5.826-60.536-5.258-24.016.711-48.031,2.416-71.9-.995-23.589-3.268-44.194-15.347-65.51-24.868-5.4-2.416-15.489-7.532-21.458-3.695-3.837,2.558-3.553,8.242-3.126,12.221a69.492,69.492,0,0,0,1.279,7.531c21.031,12.789,44.052,21.316,68.636,24.016,30.552,3.41,61.1-.426,91.8-.142,20.037.142,40.5.426,60.678,2.132V335.825Z" transform="translate(252.028 357.594)" fill="#424b56"/>
    <path id="Trazado_204" data-name="Trazado 204" d="M433.268,330.3c-4.121-1.137-8.668,0-12.789-1.705-3.126-1.279-5.542-4.121-7.816-6.679-9.379-11.226-14.21-5.684-24.158.426-8.384,5.116-17.337,0-25.437-2.984-1.137-.426-2.274-.711-3.268-1.137v20.889c8.953.568,17.905,1.279,26.716,2.416,12.789,1.705,25.437,1.705,38.368,1.705a91.833,91.833,0,0,0,15.347-.995c1.563-.284,3.837-.853,5.542-.568C447.336,336.838,436.678,331.3,433.268,330.3Z" transform="translate(314.497 364.254)" fill="#f79e6a"/>
    <path id="Trazado_205" data-name="Trazado 205" d="M185.1,251.457c-.284-9.805,6.963-32.968,21.174-29.131,12.363,3.268,8.1,30.552,8.1,39.5-.284,26.574.284,54.71-4.974,80.289-1.847,8.953-5.116,17.479-6.395,26.574a4.145,4.145,0,0,1-2.842.568c-2.984-24.726-8.1-48.031-8.1-73.184,0-9.521-.568-18.758-.568-28.137,0-2.842.284-5.968-.284-8.668C189.792,254.441,186.1,252.31,185.1,251.457Z" transform="translate(240.938 324.868)" fill="#f79e6a"/>
    <path id="Trazado_206" data-name="Trazado 206" d="M182.921,245.7c3.837-15.631,4.547-24.016,1.989-33.252-1.705-6.395-7.816-15.347.568-19.326,10.8-5.258,29.416-3.126,40.073,1.137,11.51,4.547,16.484,13.358,12.505,25.863-5.968,19.042-24.442,13.926-38.937,7.247" transform="translate(239.283 311.443)" fill="#f79e6a"/>
    <path id="Trazado_207" data-name="Trazado 207" d="M197.917,226.072a4.255,4.255,0,0,0,.568,1.421c3.126,6.537,14.068,8.526,20.605,8.668,11.084.284,20.747-8.384,19.752-19.752-.853-10.516-10.516-23.874-22.595-21.742-7.105,1.137-8.1,8.1-7.674,14.779,8.242-8.81,14.495,15.063,3.553,13.926-2.984-.284-4.547-5.542-7.105-6.253C198.912,215.7,196.5,221.241,197.917,226.072Z" transform="translate(246.171 313.306)" fill="#282f39"/>
    <path id="Trazado_208" data-name="Trazado 208" d="M230.853,215.672c-4.832-.426-8.953,5.4-9.947,9.379-1.989,8.242.142,15.631,8.526,18.9,4.405,1.705,9.095,2.132,12.647-.853,2.7-2.274,5.258-5.684,5.826-9.237C249.752,222.777,238.668,213.825,230.853,215.672Z" transform="translate(255.724 322.143)" fill="#282f39"/>
    <path id="Trazado_209" data-name="Trazado 209" d="M198.414,230.589c-.284,4.974-8.242,11.51-11.226,15.631-3.695,5.258-4.974,11.51-2.842,17.621a27.326,27.326,0,0,0,5.826,9.521c1.279,1.279,4.547,2.558,5.4,3.411,1.847,2.132.568,6.537,1.137,9.237-10.089.853-19.468-7.105-22.595-16.058-1.563-4.547-3.979-16.058-.995-20.605,1.137-1.847,4.547-2.558,6.253-3.837a40.361,40.361,0,0,0,6.963-6.963c3.695-4.547,6.395-12.079,11.084-15.489,3.695-2.558,7.958-1.989,11.937-1.279C204.241,221.068,199.835,228.315,198.414,230.589Z" transform="translate(235.3 324.563)" fill="#424b56"/>
    <g id="Grupo_151" data-name="Grupo 151" transform="translate(334.383 477.989)">
      <g id="Grupo_150" data-name="Grupo 150" transform="translate(0 24.663)">
        <path id="Trazado_210" data-name="Trazado 210" d="M120.6,337c7.247-10.8,14.921-21.316,20.889-32.826a83.641,83.641,0,0,0,6.679-18.047c.284-1.563.711-3.126.853-4.689s.426-3.126.568-4.832c0-1.563.284-3.268.142-4.832,0-1.563-.142-3.268-.284-4.832-.711-6.395-2.416-12.647-3.268-19.184a56.931,56.931,0,0,1-.711-9.805,75.841,75.841,0,0,1,.711-9.805,105.949,105.949,0,0,1,5.116-18.9c2.132-6.11,4.547-12.221,6.537-18.331,0,0,0-.142.142,0v.142c-3.41,12.505-8.668,24.584-10.658,37.373a62.04,62.04,0,0,0,.142,19.184c.995,6.395,2.558,12.647,3.268,19.184.142,1.563.284,3.268.284,4.974s-.142,3.268-.142,4.974c-.142,1.705-.426,3.268-.568,4.832-.284,1.563-.568,3.268-.853,4.832a77.381,77.381,0,0,1-6.963,18.331c-5.968,11.653-14.068,21.884-21.458,32.542A1.093,1.093,0,0,1,120.6,337Z" transform="translate(-120.6 -190.856)" fill="#517c44"/>
      </g>
      <path id="Trazado_211" data-name="Trazado 211" d="M142.9,210.642c.995-8.953,13.074-15.347,18.474-21.742C159.526,199.842,151.71,206.095,142.9,210.642Z" transform="translate(-111.211 -167.016)" fill="#517c44"/>
      <path id="Trazado_212" data-name="Trazado 212" d="M139.2,224.342c.995-8.953,13.074-15.347,18.474-21.742C155.826,213.542,148.01,219.795,139.2,224.342Z" transform="translate(-112.769 -161.248)" fill="#517c44"/>
      <path id="Trazado_213" data-name="Trazado 213" d="M138.9,233.342c.995-8.953,13.074-15.347,18.474-21.742C155.384,222.542,147.568,228.795,138.9,233.342Z" transform="translate(-112.895 -157.458)" fill="#517c44"/>
      <path id="Trazado_214" data-name="Trazado 214" d="M139.9,241.642c.995-8.953,13.074-15.347,18.474-21.742C156.384,230.842,148.568,237.237,139.9,241.642Z" transform="translate(-112.474 -153.964)" fill="#517c44"/>
      <path id="Trazado_215" data-name="Trazado 215" d="M141.6,250.042c.995-8.953,13.074-15.347,18.474-21.742C158.226,239.242,150.268,245.637,141.6,250.042Z" transform="translate(-111.758 -150.427)" fill="#517c44"/>
      <path id="Trazado_216" data-name="Trazado 216" d="M146.974,249.142c-.995-8.953-13.074-15.205-18.474-21.742C130.347,238.342,138.163,244.737,146.974,249.142Z" transform="translate(-117.274 -150.806)" fill="#517c44"/>
      <path id="Trazado_217" data-name="Trazado 217" d="M144.174,239.042c-.995-8.953-13.074-15.205-18.474-21.742C127.547,228.242,135.505,234.637,144.174,239.042Z" transform="translate(-118.453 -155.058)" fill="#517c44"/>
      <path id="Trazado_218" data-name="Trazado 218" d="M143.774,231.042c-.995-8.953-13.074-15.205-18.474-21.742C127.289,220.242,135.105,226.637,143.774,231.042Z" transform="translate(-118.621 -158.427)" fill="#517c44"/>
      <path id="Trazado_219" data-name="Trazado 219" d="M141.971,225.479c1.279-8.953-8.953-18.047-12.647-25.579C128.471,210.842,134.581,218.942,141.971,225.479Z" transform="translate(-116.961 -162.384)" fill="#517c44"/>
      <path id="Trazado_220" data-name="Trazado 220" d="M144.871,216.479c1.279-8.953-8.953-18.047-12.647-25.579C131.371,201.984,137.481,209.942,144.871,216.479Z" transform="translate(-115.739 -166.174)" fill="#517c44"/>
      <path id="Trazado_221" data-name="Trazado 221" d="M144.92,209.252c3.268-8.384-4.405-19.61-6.253-27.852C135.257,192.058,139.378,201.295,144.92,209.252Z" transform="translate(-113.515 -170.174)" fill="#517c44"/>
      <path id="Trazado_222" data-name="Trazado 222" d="M148.444,201.352c3.268-8.384-4.405-19.61-6.253-27.852C138.639,184.016,142.76,193.252,148.444,201.352Z" transform="translate(-112.066 -173.5)" fill="#517c44"/>
      <path id="Trazado_223" data-name="Trazado 223" d="M145.914,200.31c-.853-8.953,9.805-17.621,13.784-25.01C159.983,186.384,153.588,194.2,145.914,200.31Z" transform="translate(-109.962 -172.742)" fill="#517c44"/>
      <path id="Trazado_224" data-name="Trazado 224" d="M141.8,262.563c1.279-11.795,17.053-20.037,24.158-28.563C163.542,248.495,153.31,256.737,141.8,262.563Z" transform="translate(-111.674 -148.027)" fill="#517c44"/>
      <path id="Trazado_225" data-name="Trazado 225" d="M137.4,272.684c3.126-11.368,19.895-17.337,28.137-24.584C160.989,261.884,149.621,268.563,137.4,272.684Z" transform="translate(-113.526 -142.09)" fill="#517c44"/>
      <path id="Trazado_226" data-name="Trazado 226" d="M132.1,283.679c3.695-11.226,20.889-16.058,29.558-22.879C156.258,274.3,144.463,280.268,132.1,283.679Z" transform="translate(-115.758 -136.743)" fill="#517c44"/>
      <path id="Trazado_227" data-name="Trazado 227" d="M133.162,288.173c6.11-10.089-1.279-26.431-1.705-37.373C124.635,263.589,127.762,276.521,133.162,288.173Z" transform="translate(-117.672 -140.953)" fill="#517c44"/>
      <path id="Trazado_228" data-name="Trazado 228" d="M142.564,274.31c3.553-11.368-7.532-25.295-10.658-35.81C128.354,252.568,134.464,264.221,142.564,274.31Z" transform="translate(-116.275 -146.132)" fill="#517c44"/>
    </g>
    <g id="Grupo_152" data-name="Grupo 152" transform="translate(274.7 443.173)">
      <path id="Trazado_229" data-name="Trazado 229" d="M115.831,349.662c3.268-15.205,7.389-30.268,8.953-45.758a89.1,89.1,0,0,0-.426-23.021c-.426-1.847-.568-3.837-.995-5.684l-.711-2.842c-.284-.995-.426-1.847-.711-2.7l-.853-2.7a20.716,20.716,0,0,0-.995-2.7c-.711-1.705-1.563-3.553-2.416-5.258-3.41-6.821-7.958-13.216-11.937-20.037a68.5,68.5,0,0,1-5.116-10.8c-.711-1.847-1.279-3.695-1.989-5.684a20.777,20.777,0,0,1-.711-2.842l-.426-1.421-.284-1.421a118.148,118.148,0,0,1-2.274-23.447V181.695c0-3.837,0-7.816-.142-11.653a.142.142,0,1,1,.284,0c.426,3.837.711,7.816.995,11.653l.711,11.653c.284,3.837.426,7.674.995,11.51a99.762,99.762,0,0,0,1.847,11.368,80.89,80.89,0,0,0,8.242,21.316c3.695,6.679,8.384,13.074,11.937,20.179.853,1.847,1.705,3.553,2.416,5.4a22.556,22.556,0,0,1,.995,2.842l.853,2.842a20.775,20.775,0,0,1,.711,2.842l.711,2.842c.426,1.989.711,3.837.995,5.826a93.613,93.613,0,0,1-.142,23.589,178.231,178.231,0,0,1-4.547,23.021l-5.968,22.595c0,.142-.142.142-.284.142C115.831,349.8,115.689,349.8,115.831,349.662Z" transform="translate(-71.779 -140.2)" fill="#517c44"/>
      <path id="Trazado_230" data-name="Trazado 230" d="M96.427,196.258c-2.7-10.516,8.1-22.737,11.368-32.258C110.353,177.074,104.243,187.447,96.427,196.258Z" transform="translate(-71.275 -142.684)" fill="#517c44"/>
      <path id="Trazado_231" data-name="Trazado 231" d="M98.127,213.158c-2.7-10.516,8.1-22.737,11.368-32.258C112.053,193.974,106.085,204.489,98.127,213.158Z" transform="translate(-70.559 -135.569)" fill="#517c44"/>
      <path id="Trazado_232" data-name="Trazado 232" d="M101.627,223.458c-2.7-10.516,8.1-22.737,11.368-32.258C115.411,204.274,109.443,214.647,101.627,223.458Z" transform="translate(-69.085 -131.232)" fill="#517c44"/>
      <path id="Trazado_233" data-name="Trazado 233" d="M106.227,232.258c-2.7-10.516,8.1-22.737,11.368-32.258C120.153,213.216,114.043,223.589,106.227,232.258Z" transform="translate(-67.148 -127.527)" fill="#517c44"/>
      <path id="Trazado_234" data-name="Trazado 234" d="M111.827,240.958c-2.7-10.516,8.1-22.737,11.368-32.258C125.753,221.916,119.643,232.289,111.827,240.958Z" transform="translate(-64.791 -123.864)" fill="#517c44"/>
      <path id="Trazado_235" data-name="Trazado 235" d="M119.984,235.242C115.01,225.579,98.81,223.732,90,218.9,96.821,230.41,108.331,234.105,119.984,235.242Z" transform="translate(-73.8 -119.569)" fill="#517c44"/>
      <path id="Trazado_236" data-name="Trazado 236" d="M112.584,225.142C107.61,215.479,91.41,213.631,82.6,208.8,89.421,220.168,100.931,223.863,112.584,225.142Z" transform="translate(-76.916 -123.822)" fill="#517c44"/>
      <path id="Trazado_237" data-name="Trazado 237" d="M108.784,216.342C103.81,206.679,87.61,204.832,78.8,200,85.621,211.51,97.131,215.063,108.784,216.342Z" transform="translate(-78.516 -127.527)" fill="#517c44"/>
      <path id="Trazado_238" data-name="Trazado 238" d="M104.21,210.905c-2.416-10.516-17.763-16.342-25.01-23.305C83.037,200.531,93.268,206.926,104.21,210.905Z" transform="translate(-78.347 -132.748)" fill="#517c44"/>
      <path id="Trazado_239" data-name="Trazado 239" d="M103.61,199.705c-2.416-10.516-17.763-16.342-25.01-23.305C82.437,189.189,92.668,195.584,103.61,199.705Z" transform="translate(-78.6 -137.463)" fill="#517c44"/>
      <path id="Trazado_240" data-name="Trazado 240" d="M100.3,191.621c0-10.8-13.358-20.037-18.9-28.421C82.111,176.558,90.637,185.084,100.3,191.621Z" transform="translate(-77.421 -143.021)" fill="#517c44"/>
      <path id="Trazado_241" data-name="Trazado 241" d="M100.8,181.321c0-10.8-13.358-20.037-18.9-28.421C82.611,166.116,90.995,174.784,100.8,181.321Z" transform="translate(-77.211 -147.358)" fill="#517c44"/>
      <path id="Trazado_242" data-name="Trazado 242" d="M95.228,182.821c-4.689-9.663,3.41-23.874,4.832-33.821C105.033,161.221,101.2,172.731,95.228,182.821Z" transform="translate(-72.207 -149)" fill="#517c44"/>
      <path id="Trazado_243" data-name="Trazado 243" d="M116.569,255.647c-3.553-13.784,10.516-29.842,14.921-42.347C134.9,230.495,126.942,244.137,116.569,255.647Z" transform="translate(-62.853 -121.927)" fill="#517c44"/>
      <path id="Trazado_244" data-name="Trazado 244" d="M116.326,269.347c-1.421-14.068,14.921-27.852,21.031-39.647C138.21,247.179,128.263,259.542,116.326,269.347Z" transform="translate(-62.753 -115.022)" fill="#517c44"/>
      <path id="Trazado_245" data-name="Trazado 245" d="M115.306,284.068c-.711-14.21,16.484-27,23.305-38.368C138.327,263.321,127.669,274.973,115.306,284.068Z" transform="translate(-63.154 -108.285)" fill="#517c44"/>
      <path id="Trazado_246" data-name="Trazado 246" d="M120.1,285.368c2.558-13.926-12.647-28.989-17.905-41.068C100.062,261.495,109.015,274.568,120.1,285.368Z" transform="translate(-68.799 -108.875)" fill="#517c44"/>
      <path id="Trazado_247" data-name="Trazado 247" d="M125.584,265.426c-.853-14.21-19.326-25.01-27.284-35.526C100.432,247.237,112.226,257.752,125.584,265.426Z" transform="translate(-70.305 -114.938)" fill="#517c44"/>
    </g>
    <g id="Grupo_154" data-name="Grupo 154" transform="translate(253.1 519.909)">
      <g id="Grupo_153" data-name="Grupo 153" transform="translate(15.489 19.752)">
        <path id="Trazado_248" data-name="Trazado 248" d="M115.51,329.873c-.142-10.374.284-20.747-.995-30.979a67.433,67.433,0,0,0-3.695-14.921c-.568-1.137-.995-2.416-1.563-3.553s-1.137-2.274-1.847-3.41a32.935,32.935,0,0,0-4.405-6.253c-3.268-3.979-7.247-7.247-10.8-11.084a53.39,53.39,0,0,1-8.81-12.932,77.783,77.783,0,0,1-5.116-14.637C77,227.132,75.863,222.016,74.3,217.042V216.9h.142c3.411,9.805,5.258,20.037,9.805,29.273a55.462,55.462,0,0,0,8.668,12.647c3.411,3.837,7.389,7.247,10.8,11.226a39.329,39.329,0,0,1,4.405,6.395c.711,1.137,1.279,2.274,1.847,3.41s.995,2.416,1.563,3.553a60.792,60.792,0,0,1,3.553,15.205c1.421,10.658.711,21.031.426,31.263Z" transform="translate(-74.3 -216.9)" fill="#517c44"/>
      </g>
      <path id="Trazado_249" data-name="Trazado 249" d="M78.244,234.295c-3.41-6.395,1.705-15.916,2.416-22.595C84.355,219.8,81.939,227.474,78.244,234.295Z" transform="translate(-57.639 -199.337)" fill="#517c44"/>
      <path id="Trazado_250" data-name="Trazado 250" d="M81.944,244.995c-3.41-6.395,1.705-15.916,2.416-22.595C88.055,230.5,85.639,238.174,81.944,244.995Z" transform="translate(-56.081 -194.832)" fill="#517c44"/>
      <path id="Trazado_251" data-name="Trazado 251" d="M85.744,251.095c-3.41-6.395,1.705-15.916,2.416-22.595C91.855,236.6,89.439,244.274,85.744,251.095Z" transform="translate(-54.481 -192.263)" fill="#517c44"/>
      <path id="Trazado_252" data-name="Trazado 252" d="M90.144,256.095c-3.411-6.395,1.705-15.916,2.416-22.595C96.113,241.6,93.839,249.274,90.144,256.095Z" transform="translate(-52.629 -190.158)" fill="#517c44"/>
      <path id="Trazado_253" data-name="Trazado 253" d="M95.044,260.895c-3.41-6.395,1.705-15.916,2.416-22.595C101.155,246.258,98.739,253.931,95.044,260.895Z" transform="translate(-50.566 -188.137)" fill="#517c44"/>
      <path id="Trazado_254" data-name="Trazado 254" d="M100.684,255.368c-4.689-5.4-15.489-4.121-21.884-5.968C84.91,255.653,93.01,256.363,100.684,255.368Z" transform="translate(-56.916 -183.464)" fill="#517c44"/>
      <path id="Trazado_255" data-name="Trazado 255" d="M94.384,249.968c-4.689-5.4-15.489-4.121-21.884-5.968C78.61,250.253,86.568,250.963,94.384,249.968Z" transform="translate(-59.569 -185.737)" fill="#517c44"/>
      <path id="Trazado_256" data-name="Trazado 256" d="M90.484,244.868c-4.689-5.4-15.489-4.121-21.884-5.968C74.853,245.295,82.81,245.863,90.484,244.868Z" transform="translate(-61.211 -187.885)" fill="#517c44"/>
      <path id="Trazado_257" data-name="Trazado 257" d="M86.752,242.026C83.484,235.632,72.826,234.21,67,230.8,71.405,238.616,79.079,241.174,86.752,242.026Z" transform="translate(-61.884 -191.295)" fill="#517c44"/>
      <path id="Trazado_258" data-name="Trazado 258" d="M84.652,234.826C81.384,228.432,70.726,227.01,64.9,223.6,69.305,231.416,76.979,233.974,84.652,234.826Z" transform="translate(-62.768 -194.327)" fill="#517c44"/>
      <path id="Trazado_259" data-name="Trazado 259" d="M81.326,230.189C79.763,223.226,69.674,219.247,64.7,214.7,67.258,223.226,73.937,227.489,81.326,230.189Z" transform="translate(-62.853 -198.074)" fill="#517c44"/>
      <path id="Trazado_260" data-name="Trazado 260" d="M80.026,223.489C78.463,216.526,68.374,212.547,63.4,208,65.958,216.384,72.637,220.647,80.026,223.489Z" transform="translate(-63.4 -200.895)" fill="#517c44"/>
      <path id="Trazado_261" data-name="Trazado 261" d="M75.549,225.595C71,220.052,74.127,209.679,73.417,203,78.675,210.105,77.822,218.063,75.549,225.595Z" transform="translate(-59.349 -203)" fill="#517c44"/>
      <path id="Trazado_262" data-name="Trazado 262" d="M100.042,269.758c-4.405-8.384,2.274-20.889,3.126-29.558C107.857,250.716,104.873,260.663,100.042,269.758Z" transform="translate(-48.6 -187.337)" fill="#517c44"/>
      <path id="Trazado_263" data-name="Trazado 263" d="M101.9,278.847c-3.126-8.953,5.4-20.321,7.532-28.847C112.56,261.226,108.012,270.747,101.9,278.847Z" transform="translate(-47.476 -183.211)" fill="#517c44"/>
      <path id="Trazado_264" data-name="Trazado 264" d="M103.533,288.679c-2.558-9.095,6.537-19.895,9.237-28.279C115.185,271.626,110.07,280.863,103.533,288.679Z" transform="translate(-46.691 -178.832)" fill="#517c44"/>
      <path id="Trazado_265" data-name="Trazado 265" d="M108.305,287.673c-.426-9.379-12.647-16.768-17.905-23.873C91.821,275.453,99.637,282.558,108.305,287.673Z" transform="translate(-52.032 -177.401)" fill="#517c44"/>
      <path id="Trazado_266" data-name="Trazado 266" d="M108.821,273.958c-2.7-8.953-16.342-13.216-23.021-18.758C89.779,266,99.158,271.116,108.821,273.958Z" transform="translate(-53.969 -181.022)" fill="#517c44"/>
    </g>
    <path id="Trazado_267" data-name="Trazado 267" d="M81.1,279.3c14.353-7.816,22.452,9.095,33.395,15.774,8.242,5.116,25.01,6.11,33.537,2.132,1.563,20.463-5.826,43.768-30.552,41.921C86.926,336.709,89.91,301.751,81.1,279.3Z" transform="translate(197.153 348.184)" fill="#38404e"/>
    <path id="Trazado_268" data-name="Trazado 268" d="M168.8,379.4H94.052A27.9,27.9,0,0,1,66.2,351.552h0A27.9,27.9,0,0,1,94.052,323.7H168.8a27.9,27.9,0,0,1,27.852,27.852h0A27.99,27.99,0,0,1,168.8,379.4Z" transform="translate(190.879 367.729)" fill="#38404e"/>
    <path id="Trazado_269" data-name="Trazado 269" d="M182.115,326a36.43,36.43,0,0,1,.995,8.81c-.142,7.389-3.268,13.642-8.384,18.9-5.4,5.542-12.221,7.674-19.895,8.1-15.631.711-31.121-2.842-44.052-11.937-9.095-6.395-17.621-13.926-27.71-18.616a37.425,37.425,0,0,0-6.395-2.274A27.647,27.647,0,0,0,66.3,350.726h0a27.9,27.9,0,0,0,27.852,27.852H168.9a27.9,27.9,0,0,0,27.852-27.852h0A28.282,28.282,0,0,0,182.115,326Z" transform="translate(190.921 368.698)" fill="#f6f6f6"/>
    <path id="Trazado_270" data-name="Trazado 270" d="M144.847,347.621H112.163a4.275,4.275,0,0,1-4.263-4.263v-6.395a4.275,4.275,0,0,1,4.263-4.263h32.684a4.275,4.275,0,0,1,4.263,4.263v6.395A4.369,4.369,0,0,1,144.847,347.621Z" transform="translate(208.437 371.519)" fill="#e55173"/>
    <path id="Trazado_271" data-name="Trazado 271" d="M93.116,362.91H80.895a6.368,6.368,0,0,1-6.395-6.395V344.295a6.368,6.368,0,0,1,6.395-6.395H93.116a6.368,6.368,0,0,1,6.395,6.395v12.221A6.555,6.555,0,0,1,93.116,362.91Z" transform="translate(194.374 373.708)" fill="#67727c" opacity="0.53"/>
    <g id="Grupo_155" data-name="Grupo 155" transform="translate(295.243 665.486)">
      <path id="Trazado_272" data-name="Trazado 272" d="M100.223,340.624a2.4,2.4,0,0,1-1.279-4.405c1.847-1.137.853-3.837-1.989-9.663-2.558-4.974-5.116-10.232-3.268-14.779.995-2.558,3.41-4.405,6.963-5.542,11.368-3.695,23.163,6.253,33.537,15.205,6.253,5.258,12.079,10.374,17.053,11.795a2.382,2.382,0,1,1-1.421,4.547c-5.826-1.847-12.079-7.105-18.616-12.789-9.947-8.526-20.179-17.195-29.131-14.21-2.274.711-3.553,1.705-4.121,2.984-1.137,2.558,1.137,6.963,3.126,10.942,2.7,5.4,6.11,12.079.426,15.774C101.076,340.482,100.65,340.624,100.223,340.624Z" transform="translate(-93.057 -305.443)" fill="#6d7175"/>
    </g>
  </g>
</svg>
