<svg xmlns="http://www.w3.org/2000/svg" width="398.171" height="348.854" viewBox="0 0 398.171 348.854">
  <g id="Grupo_198" data-name="Grupo 198" transform="translate(-293.829 -440.436)">
    <path id="Trazado_273" data-name="Trazado 273" d="M225.579,227.221s-5.077,56.028,15.9,55.172c22.656-.893,16.539-55.172,16.539-55.172-2.948-8.747-4.123-13.946-2.8-23.121H227.842C229.151,213.3,228.527,218.5,225.579,227.221Z" transform="translate(251.108 337.531)" fill="#f9cdb9"/>
    <path id="Trazado_274" data-name="Trazado 274" d="M227.868,214.972a47.5,47.5,0,0,0,9.481,2.055,49.086,49.086,0,0,0,9.285-.269,38.412,38.412,0,0,0,7.8-1.578,40.7,40.7,0,0,1,.281-11.01H227.33a48.616,48.616,0,0,1,.538,10.8Z" transform="translate(251.62 337.547)" fill="#f8c4ab"/>
    <path id="Trazado_275" data-name="Trazado 275" d="M244.836,221.76a29.359,29.359,0,0,0,20.8-8.636c6.558-6.607,11.7-13.971,13.213-22.62,1.933-11.108-1.823-22.2-10.019-31.134H220.749c-8.2,8.93-11.952,20.026-10.007,31.134,1.5,8.649,6.643,16.013,13.2,22.619a29.36,29.36,0,0,0,20.8,8.637Z" transform="translate(247.803 327.542)" fill="#f9cdb9"/>
    <path id="Trazado_276" data-name="Trazado 276" d="M241.541,228.4c-.979,1.089-1.908,2.275-2.8,3.462a22.227,22.227,0,0,1-2.838-2.545.124.124,0,0,0-.208.135,9.383,9.383,0,0,0,2.753,3.67.612.612,0,0,0,.832,0,23.735,23.735,0,0,0,3.254-3.915.639.639,0,1,0-.991-.807Z" transform="translate(253.483 342.906)" fill="#f8c4ab"/>
    <path id="Trazado_277" data-name="Trazado 277" d="M266.091,226.6a134.712,134.712,0,0,0-21.616,3.67c-.428.11-.245.771.183.673a144.117,144.117,0,0,1,21.433-3.12C266.837,227.714,266.837,226.539,266.091,226.6Z" transform="translate(255.394 342.556)" fill="#f8c4ab"/>
    <path id="Trazado_278" data-name="Trazado 278" d="M215.041,226.6a134.494,134.494,0,0,1,21.616,3.67.355.355,0,0,1-.184.673,143.659,143.659,0,0,0-21.433-3.12C214.3,227.714,214.307,226.539,215.041,226.6Z" transform="translate(248.751 342.556)" fill="#f8c4ab"/>
    <path id="Trazado_279" data-name="Trazado 279" d="M219.2,144.27c-10.215,5.848-17.42,15.059-17.53,27.439-.122,13.958,16.882,36.186,16.649,35.636-5.652-13.579-7.132-32.271,6.973-41.593a39.057,39.057,0,0,0,4.428-2.557A23.525,23.525,0,0,0,219.2,144.27Z" transform="translate(245.889 324.169)" fill="#e55173"/>
    <path id="Trazado_280" data-name="Trazado 280" d="M262.171,144.27c10.215,5.848,17.42,15.059,17.53,27.439.122,13.958-8.233,26.375-16.552,36.932,2.116-4.6,7.034-33.568-7.071-42.927a39.065,39.065,0,0,1-4.428-2.557A23.525,23.525,0,0,1,262.171,144.27Z" transform="translate(257.051 324.169)" fill="#b33e5a"/>
    <path id="Trazado_281" data-name="Trazado 281" d="M417.092,141.993a39.722,39.722,0,0,0-25.409-2.985,43.073,43.073,0,0,0-11.707,4.257c-2.447,1.3-4.954,3.156-7.817,3.376-3.474.257-6.52-2.006-9.114-4.013-8.013-6.239-16.185-11.707-26.51-13.212-4.991-.734-10.57-.2-14.435,2.863a27.88,27.88,0,0,0-16.38-10.325c-8.563-1.811-16.8.771-23.561,5.958-3.817-1.872-10.5-4.563-11.34-4.8-25.445-7-60.188,10.753-55.686,40.688,3.853,25.69,36.431,37.605,59.013,32.32,4.893,9.224,16.539,11.352,25.531,6.569.685.526,1.37,1.052,2.067,1.566,14.35,10.521,31.06,17.359,49.08,14.252a55.331,55.331,0,0,0,19.157-7.205,18.9,18.9,0,0,0,19.769,2.288A17.738,17.738,0,0,0,399.4,201.7h.257c14.986-.2,30.9-7.634,34.73-23.353C437.876,164.05,430.132,148.465,417.092,141.993Z" transform="translate(248.807 319.057)" fill="#b33e5a"/>
    <path id="Trazado_282" data-name="Trazado 282" d="M329.254,135.917c4.893,4.037,7.842,9.554,4.783,15.622-2.447,4.954-6.985,8.563-10.264,12.955-3.829,5.138-4.49,11.732,1.8,15.487s13.921-.905,19.072-4.4c6.361-4.306,13.187-16.809,18.668-22.154,24.344-23.794,48.517,1.639,48.615,1.725a32.834,32.834,0,0,0-14.484-14.57,39.721,39.721,0,0,0-25.409-2.985,43.071,43.071,0,0,0-11.707,4.257c-2.447,1.3-4.954,3.156-7.817,3.376-3.474.257-6.52-2.006-9.114-4.013-8.013-6.239-16.185-11.707-26.51-13.212-4.893-.71-10.313-.2-14.166,2.691C311.124,127.439,322.513,130.412,329.254,135.917Z" transform="translate(268.457 320.473)" fill="#e55173"/>
    <path id="Trazado_283" data-name="Trazado 283" d="M413.727,197.6c-5.958.7-11.536.367-17-2.067-2.373,6.117-7.193,12.319-14.032,13.285-4.587.648-10.007-.783-10.949-5.64-32.247,26.265-68.4-3.034-71.883-8.563-10.056,6.557-22.729-1.444-26.485-11.671-7.658,2.96-16.49,2.043-23.941-1.138-13.86-5.933-21.543-22.289-16.686-36.7,4.025-12,14.79-20.2,26.705-23.549-23.243-.135-48.175,16.552-44.321,42.193s36.431,37.605,59.013,32.32c4.893,9.224,16.539,11.352,25.531,6.569.685.526,1.37,1.052,2.067,1.566,14.35,10.521,31.06,17.359,49.08,14.252a55.331,55.331,0,0,0,19.157-7.205,18.9,18.9,0,0,0,19.769,2.288,17.738,17.738,0,0,0,9.652-11.891h.257a43.636,43.636,0,0,0,20.674-5.346,38.658,38.658,0,0,1-6.606,1.3Z" transform="translate(248.807 319.097)" fill="#e55173"/>
    <path id="Trazado_284" data-name="Trazado 284" d="M234.623,190.85c-4.282.71-11.242.942-15.194-3.291-.783-.832-1.847.11-.869.954l.477.379a4.172,4.172,0,0,1-1.468.159h0a3.67,3.67,0,0,0,1.884.147h0a7.951,7.951,0,0,1-1.823.71h0a3.67,3.67,0,0,0,2.239-.44l.22.122a4.465,4.465,0,0,1-1.664.8v.11a3.45,3.45,0,0,0,2.2-.6l.4.208a7.964,7.964,0,0,1-1.431.869c-.061,0,0,.1,0,.1a2.912,2.912,0,0,0,1.859-.746c.171.086.355.147.526.22a8.2,8.2,0,0,1-.771.673v.086a3.3,3.3,0,0,0,1.223-.55,17.75,17.75,0,0,0,12.478.245C235.406,190.923,235.1,190.764,234.623,190.85Z" transform="translate(249.44 333.765)" fill="#424495"/>
    <path id="Trazado_285" data-name="Trazado 285" d="M245.968,190.85c4.282.71,11.242.942,15.194-3.291.783-.832,1.859.11.869.954-.147.135-.318.257-.477.379a4.208,4.208,0,0,0,1.468.159h0a3.67,3.67,0,0,1-1.884.147h0a8.183,8.183,0,0,0,1.823.71h0a3.67,3.67,0,0,1-2.251-.44,1.226,1.226,0,0,0-.208.122,4.4,4.4,0,0,0,1.652.8c.073,0,0,.11,0,.11a3.437,3.437,0,0,1-2.19-.6l-.416.208a8.564,8.564,0,0,0,1.443.869v.1a2.911,2.911,0,0,1-1.859-.746l-.514.22a8.032,8.032,0,0,0,.758.673v.086a3.3,3.3,0,0,1-1.223-.55,17.714,17.714,0,0,1-12.466.245C245.185,190.923,245.5,190.764,245.968,190.85Z" transform="translate(255.663 333.765)" fill="#424495"/>
    <path id="Trazado_286" data-name="Trazado 286" d="M242.06,197.472c-2.018,1.04-4.013,1.456-6.117.208-.147-.086-.318.122-.2.245,1.774,1.578,4.893,1.982,6.716.135a.379.379,0,0,0-.4-.587Z" transform="translate(253.49 336.048)" fill="#f6b291"/>
    <path id="Trazado_287" data-name="Trazado 287" d="M247.375,203.381a30.51,30.51,0,0,1-14.851,0c-.073,0-.122.086,0,.11a17.738,17.738,0,0,0,14.949,0C247.485,203.466,247.436,203.356,247.375,203.381Z" transform="translate(252.763 337.37)" fill="#f6b291"/>
    <path id="Trazado_288" data-name="Trazado 288" d="M231.321,195.444a3.2,3.2,0,0,0-.648-.245c-2.8-.71-6.117-2.08-9.04-1.59a2.655,2.655,0,0,0-1.37,4.343c1.223,1.59,3.731,2.031,5.627,2.19s4.893.343,6.374-1.223S232.667,196.1,231.321,195.444Z" transform="translate(249.892 335.165)" fill="#f8c4ab"/>
    <path id="Trazado_289" data-name="Trazado 289" d="M248.2,195.444a2.948,2.948,0,0,1,.648-.245c2.789-.71,6.117-2.08,9.028-1.59a2.667,2.667,0,0,1,1.382,4.343c-1.223,1.59-3.731,2.031-5.64,2.19s-4.893.343-6.361-1.223S246.844,196.1,248.2,195.444Z" transform="translate(255.912 335.165)" fill="#f8c4ab"/>
    <path id="Trazado_290" data-name="Trazado 290" d="M209.331,180.125c-2.887-.428-5.994.771-5.48,4.208.416,2.74,3.364,5.48,7.878,4.649a30.8,30.8,0,0,1-2.4-8.857Z" transform="translate(246.364 332.158)" fill="#f9cdb9"/>
    <path id="Trazado_291" data-name="Trazado 291" d="M206.3,182.652a4.11,4.11,0,0,1,3.1-.8c-.061-.33-.11-.673-.159-1a4.893,4.893,0,0,0-4,1.517c-1.3,1.652-.318,3.5,1.125,4.624a.212.212,0,0,0,.294-.306C205.669,185.588,204.947,183.8,206.3,182.652Z" transform="translate(246.551 332.335)" fill="#f8c4ab"/>
    <path id="Trazado_292" data-name="Trazado 292" d="M209.57,184a3.952,3.952,0,0,0-2.875-1.015c-.269,0-.355.44-.073.489a3.523,3.523,0,0,1,2.447,1.517c-.636.343-1.1,1.089-.453,1.688a2.447,2.447,0,0,0,1.994.526A29.941,29.941,0,0,1,209.57,184Z" transform="translate(246.956 332.813)" fill="#f8c4ab"/>
    <path id="Trazado_293" data-name="Trazado 293" d="M208.694,186.7h0c.465,1.15,1.125,3.841-.465,4.392-1.064.379-1.223-.991-1-1.725a7.915,7.915,0,0,1,.82-1.933,6.889,6.889,0,0,1-1.407-.5,3.437,3.437,0,0,0-1.089,3.168,2.447,2.447,0,0,0,2.116,2.373,2.2,2.2,0,0,0,2.1-1.957A5.738,5.738,0,0,0,208.694,186.7Z" transform="translate(246.744 333.645)" fill="#fdca27"/>
    <path id="Trazado_294" data-name="Trazado 294" d="M471.709,361.085c-6.875-8.172-21.751-8.845-31.513-9.86-29.36-3.046-59.441-2.288-88.8.086q-21.922,1.774-43.648,5.3c-10.484,1.7-22.191,2.887-32.663,6.239-10.472-3.352-22.167-4.539-32.651-6.239q-21.714-3.5-43.648-5.3c-29.36-2.373-59.466-3.132-88.8-.086-9.787,1.015-24.638,1.688-31.513,9.86-6.643,7.9,1.554,17.494,7.866,22.521,8.735,6.948,19.793,10.374,30.363,13.359a304.213,304.213,0,0,0,40.5,8.257c61.166,8.563,94.294,2.263,126.223,1.872a58.565,58.565,0,0,1,3.425,4.893,828.074,828.074,0,0,0,106.124-6.765A292.472,292.472,0,0,0,433.468,397c10.582-2.985,21.641-6.41,30.375-13.359C470.155,378.579,478.352,368.988,471.709,361.085Z" transform="translate(217.825 369.941)" fill="#938f90"/>
    <path id="Trazado_295" data-name="Trazado 295" d="M389.656,364.286c1.015-1.3,7.169-2.9,9.591-3.976-11.414.918-22.888,2.288-34.253,3.462-21.665,2.226-43.355,7.964-63.882,15.145-9.787,3.425-19.573,7.046-29.36,10.667a178.017,178.017,0,0,0-22.632,9.9l3.34-1.015c11.573-3.4,58.72-28.907,146.053-32.051C396.507,365.974,389.3,364.824,389.656,364.286Z" transform="translate(256.486 372.417)" fill="#848383"/>
    <path id="Trazado_296" data-name="Trazado 296" d="M116.249,362.816c-1.015-1.309-7.169-2.911-9.579-3.976,11.4.918,22.876,2.288,34.253,3.462,21.677,2.226,43.355,7.964,63.882,15.133,9.787,3.438,19.573,7.046,29.36,10.667a176.36,176.36,0,0,1,22.632,9.909L253.457,397c-11.573-3.4-58.72-28.907-146.053-32.051C109.435,364.492,116.64,363.305,116.249,362.816Z" transform="translate(224.673 372.089)" fill="#848383"/>
    <path id="Trazado_297" data-name="Trazado 297" d="M272.156,384.476a19.108,19.108,0,0,0-14.888,0c-8.184,3.511-18.191-1.872-26.681-.905-7.817.893-12.588,9.787-6.594,15.475,1.444,1.358,15.9,6.63,38.939-4.1a17.359,17.359,0,0,1,7.829-1.811c.648,0,1.223.636,1.982.563a4.062,4.062,0,0,0,3.548-1.9C278.236,388.415,274.981,385.6,272.156,384.476Z" transform="translate(250.271 377.477)" fill="#f9c5ab"/>
    <path id="Trazado_298" data-name="Trazado 298" d="M216.583,401.356a19.157,19.157,0,0,1,14.276-4.245c8.832,1.028,16.894-6.985,25.311-8.49,7.744-1.382,14.851,5.774,10.741,12.931-.991,1.725-13.457,10.924-38.486,7.23a17.127,17.127,0,0,0-8.013.5c-.624.2-1.052.979-1.749,1.1a4.061,4.061,0,0,1-3.939-.8C211.861,406.812,214.136,403.179,216.583,401.356Z" transform="translate(248.506 378.701)" fill="#f9cdb9"/>
    <path id="Trazado_299" data-name="Trazado 299" d="M359.524,237.411c-2.826,1.456-5.8,3.1-8.563,4.624,1.456-1.223,9.615-9.493,12.771-11.536.343-.22-.465-3.584-8.783,3.083-2.447,1.982-5.432,3.988-7.756,6.117,2.973-5.64,5.456-11.352,9.346-16.527a.465.465,0,0,0,0-.6c-.8-.612-2.789.086-3.67,1.052-1.59,1.688-7.634,8.221-10.57,15.108,0-2.361-.159-6.19-1.835-6.985-1.052-.489-2.8.171-3.927.245-2.2.159-5.113.489-7.181-.4-.294-.122-1.077-.22-.8.8.942,3.327,5.591,3.743,8.49,4.477.979,2.373-1.774,6.251-3.511,7.438-2.826,1.921-6.949,0-6.239-3.67.612-3.327,2.593-4.893.856-8.086-.587-1.077-3.046-2.043-2.447-.318,1.419,4.453-2.655,8.184-3.181,12.478-.416,3.389,1.382,6.422,3.193,9.15l-.294.832a62.543,62.543,0,0,0-5.75,13.457c3.156,1.04,12.429.379,12.392.306s1.113-6.508,3.584-9.285a58.382,58.382,0,0,1,9.371-7.793q10.264-7.585,20.8-14.68C366.142,236.347,365.812,234.157,359.524,237.411Z" transform="translate(272.244 341.605)" fill="#f9cdb9"/>
    <path id="Trazado_300" data-name="Trazado 300" d="M127,237.411c2.826,1.456,5.8,3.1,8.563,4.624-1.468-1.223-9.628-9.493-12.784-11.536-.343-.22.465-3.584,8.8,3.083,2.447,1.982,5.419,3.988,7.744,6.117-2.973-5.64-5.456-11.352-9.346-16.527a.489.489,0,0,1,0-.6c.807-.612,2.789.086,3.67,1.052,1.59,1.688,7.621,8.221,10.57,15.108,0-2.361.159-6.19,1.823-6.985,1.052-.489,2.814.171,3.927.245,2.214.159,5.114.489,7.181-.4.306-.122,1.077-.22.8.8-.93,3.327-5.591,3.743-8.478,4.477-.991,2.373,1.774,6.251,3.5,7.438,2.826,1.921,6.948,0,6.251-3.67-.624-3.327-2.606-4.893-.856-8.086.575-1.077,3.046-2.043,2.447-.318-1.407,4.453,2.655,8.184,3.181,12.478.416,3.389-1.382,6.422-3.193,9.15.11.269.2.55.294.832a61.339,61.339,0,0,1,5.75,13.457c-3.156,1.04-12.429.379-12.392.306s-1.113-6.508-3.584-9.285a58.279,58.279,0,0,0-9.358-7.793q-10.264-7.585-20.8-14.68C120.387,236.347,120.717,234.157,127,237.411Z" transform="translate(227.789 341.605)" fill="#f9cdb9"/>
    <path id="Trazado_301" data-name="Trazado 301" d="M355.242,263.827c-4.587,11.83-20.136,55.5-26.644,74.024-3.866-9.9-14.313-52.933-23.121-102.882-2.7-15.512-20.246-13.31-29.617-11.768-.673,10.423-10.8,39.318-16.234,39.367s-16.185-26.913-16.221-39.367c-9.358-1.566-26.913-3.768-29.6,11.744-8.808,49.949-19.255,92.973-23.121,102.882-6.508-18.521-22.02-62.194-26.644-74.024a51.539,51.539,0,0,1-18.876,4.661c5.028,13.371,21.628,108.057,46.095,108.057,10.606,0,17.322-11.267,28.137-53.007.538,6.973.722,20.368.453,34.449-.2,10.141-7.205,21.861-16.588,19.573-1.884-.453-4.355.979-2.018,3.523a7.561,7.561,0,0,0,2.3,1.6c14.986,7.1,15.585,17.7,24.467,23.879,5.358,3.731,11.927,4.893,18.2,6.178,6.814,1.37,13.811,2.447,20.735,1.358,11.512-1.725,20.466-9.42,30-15.438,5.321-3.364,10.729-6.117,16.98-6.973,16.087-2.361,15.01-13.714,11.646-13.457-11.267.758-26.106-13.591-26.191-29.36,0-10.521.159-19.867.575-25.3,10.814,41.74,17.53,53.007,28.137,53.007,24.467,0,41.067-94.686,46.1-108.057A51.538,51.538,0,0,1,355.242,263.827Z" transform="translate(233.269 341.551)" fill="#e55173"/>
    <path id="Trazado_302" data-name="Trazado 302" d="M275.42,290.637a3.373,3.373,0,0,0-.318.269c-1.982,1.945-3.548,4.282-5.5,6.251a10.619,10.619,0,0,1-7.267,3.67c-6.667,0-10.007-8.049-14.032-12.111-6.117-6.239-12.148,7.976-16.735,10.765s-7.9,1.138-11.365-2.251c-2.129-2.08-3.951-4.4-5.909-6.643-.514-.575-1.688,0-1.37.8,2.3,5.529,7.5,14.68,14.374,14.851,4.208.086,7.646-2.324,10.411-5.285,1.358-1.468,5.1-9.273,7.536-8.245a2.875,2.875,0,0,1,1.077.991c1.223,1.578,2.337,3.266,3.67,4.783.661.783,2.618,2.067,2.618,3.144,2.74,2.814,6.533,5.016,10.423,4.539s7.156-3.67,9.456-6.912a39.146,39.146,0,0,0,4.11-7.487c.159-.379.294-.869,0-1.162A.957.957,0,0,0,275.42,290.637Z" transform="translate(248.39 356.078)" fill="#b33e5a"/>
  </g>
</svg>
